<mxfile host="app.diagrams.net" agent="Mozilla/5.0 (Windows NT 10.0; Win64; x64) AppleWebKit/537.36 (KHTML, like Gecko) Chrome/134.0.0.0 Safari/537.36" version="26.1.1">
  <diagram name="第 1 页" id="Bt0Zi0bExREKQ4KGoxeE">
    <mxGraphModel dx="1554" dy="821" grid="1" gridSize="10" guides="1" tooltips="1" connect="1" arrows="1" fold="1" page="1" pageScale="1" pageWidth="827" pageHeight="1169" math="0" shadow="0">
      <root>
        <mxCell id="0" />
        <mxCell id="1" parent="0" />
        <mxCell id="nt5jMm1TpiSUR0SnXHAM-7" value="" style="rounded=1;whiteSpace=wrap;html=1;" vertex="1" parent="1">
          <mxGeometry x="80" y="100" width="330" height="200" as="geometry" />
        </mxCell>
        <mxCell id="nt5jMm1TpiSUR0SnXHAM-1" value="" style="shape=image;verticalLabelPosition=bottom;verticalAlign=top;imageAspect=0;aspect=fixed;image=data:image/png,iVBORw0KGgoAAAANSUhEUgAAAMgAAADICAYAAACtWK6eAAAAAXNSR0IArs4c6QAAIABJREFUeF7tfQuYHEW1f52e3U0IaILohQsBBAQVQbmCPERQ5KWIIEp8C3hR/BOy01WzCSB4vYsoj7iZqp6NiUbQSHyDqHDxiaiI8kcF39cXAnqFizxXgYRsZvrcPkvvOjuZma6qrp6Z3e36vvk2X6bqvLrP1Ouc3wGWt9wCuQVaWgBy2+QWyC3Q2gK5g+RvR26BNhbIHSR/PXIL5A6SvwO5BewskM8gdnbLR80RC+QOMkcedK6mnQVyB7GzWz5qjlggd5A58qBzNe0skDuInd3yUXPEArmDzJEHnatpZ4HcQezslo+aIxbIHUTzQQ8ODs4rFArbMMa2AYCJv5MfRKwyxjZVq9Un582btwkANnmet2nBggWbhoeH6btZ25YuXbpdoVDYEQDo83h/f//9IyMjD8wWhXMHiZ/kOeecs0NfX99BjLHdAGBXxhh9dqv7O8/yoT/CGPsTIv4JAP4UhuHE33nz5t25cuXK+yxpdnTYsmXLntfX1/cmRNyJMbaj53k7IuKO9G/G2HZNhAkZY/fTBwDuR8SJv2EYfjMIgps7KnxKZnPWQYQQ+yPigYyxgxljRzLGXpDSlsbDAeDRiPdN9AGAW8vl8s+MiWQ0wPf9FzLGXg0Ab2aMHeCKDSLeBwCfZ4xdr5T6niu6WdGZMw6yYsWKnarV6vFhGB4HAC9ljD07K6OmoHsfIt4MALcBwI+klD9OQct4qO/7L2GMHQ8AJzDGDjMmYD6AZtbrIl40s3zTfHj2I2a1gyxbtmyPQqFwXPzQ6e+22ZvUKQdajlwfzXTXB0Hwe6eU64j5vk9OcTZj7OSseGjQ/Um0j1krpfykRt+OdZmVDsI5PxUATkdE+iX0OmbNbBldzxi7LnaWv7lgxTl/BWOMHOONLug5onFL7CifdUQvFZlZ4yDDw8MDY2NjZyDi6fESKpVhenjw3xljVymlirYylkqlQ8MwJMc4zZZGB8bdGB0CrFVKXdsBXi1ZzHgHWbp06U79/f3kFKczxp7fTWN2mPedSqm9TXieffbZ28+fP/9yRHy3ybgu970BES8OguC2bsgxYx1ECPEMRDwbEZcCwM7dMF4P8LxaKaW1PCoWiwdGx7NrGWO0EZ9RDREfjU78fKXUhk4LPuMcRAixDTkGY2wpY2yvThusB/mdlvTi+L6/BAA+zhhb2IPya4sEAB+UUv6H9gAHHWeUg/i+T7MFOcd+DnSfLSTaziK+758HAJfNFmUZY19USr2pU/rMCAcRQhzBGLsIEY/qlGFmEJ+/KqXo1n+rxjn/GGPsrBmki66oP1dK/Ztu5zT9et5BOOfvjY5qP8AY60uj6Cwe29RBOOffZowdk1LvjYyxBSlpNB2OiE9GM9v8FLQ3KqUyv9fqWQcRQhyEiOQYr05hxLRDn2CM3R0dh95FfwGAgvCeQET6/4m/8b/7Pc+jF2nbMAy3nfw3ItLhAd3YT3xSvhCtdNlqicU5/zBjbLmt8oj42TgejWbuLNv1APAyRNzehgki/joIgv1txuqO6UkH4ZzzeNZ4mq4iDvrdQ+EdiEifn0ZHx3e7jkqlI+lCofBsz/MOBgB6+ehDAX9p2kVKqeFJAqVS6Q1hGF5jSfBbjLEKAOyLiCstaZgMI5ufEYbhydGPDx26GAeERgGUHw2CgPalmbSecxDO+VVR9Os7MtF2OtF7GGPfA4BbPM+7ddWqVf/dAZ5bsRgaGjqwWq0eDgD0Odbw1/Q+pdQuk0Rpr0axXBZ6/BoARqSUn+KcHwYANyFimuWPiQjrlVLvpODI2EneYzI47rtUKUVH2M5bzziIEGJPRPwyY4yiSLNqFD36fXKMXowkHRwcfFZfX9+JjLHXRLMY/W37i4qIh05eoPm+/1wAoGhgylMxafQjcaaUkpaRzNHexYQ/9X2nUmo9/UMIIRCxbErA87xTy+Xyl0zHJfXvCQfxff9EAKBYoyzag9F9yQbP864ql8u/yIJBFjTPOeec3QcGBiYd5XDG2NNjPjTzXaOUWjHJl27I582b99V4yaYtDv0gBUHw+skB0cqWlmr/qU3AXUfS6SilFP1lxWLxzZ7nfZoxVjBhEc18R0opf2AyJqlv1x3E9/0VAOB8vQsAtGTasGXLlqtWr149IxKT2j0sugnv6+t7oFwu/09jP9/3rwGANyQ97Cbf/wAALpFSfiM6Ev5XxthPGWMuoxLGGGOLdOSa3EsUi8X9PM8j57eJE/t9rVY7ZnR09K86PHX6dNVBMvrForDwYOPGjVesW7dui44RZnKfYrF4iud5aQP6aN+3iTGmtf6npRwi6txDUK7HSTr2jY99P8UYe3vKtISR+tlVh3e7Pl1zEM45TeVTpy+pFQF4NNrgBps3b66sXbuWMvXmROOc08nTsQ6UxegyVut98DzvHWEY6sRF0eUu7Y0oK7EjDQDGEfEwpdQdLhhqGcQFo3oaGcwca8k5skwqcm0DF/SEEG+OXsDPuaClSwMA/gsRVzHGvqsx5qJCofDFWq1GByPP1OjvqgulA1B0d+rWcQdx7Bw/pxAUpdRXUltiBhLgnNOLR/n0HWue570yDEOabbQchO5oSqVSMQzDoGNC0lQI8GraW6Xl2VEHiS8AZVqh4/Eqdg7aCM65xjk/gzHW0fTUOOyclnSUtKUT40U35X9GRAJ9IByAjmV3Rkfg34iOwFNHYXTMQYrF4ss8z3NxBPcrxtj75+qsMflLwDmnBCJCZMlbCwtQdmkQBHQAYd064iCDg4P7FgqF31hL+c+BX63VastcHuM5kKnjJHzffzsA6GySaanxJUQknKolHRfUPUPKxf86Y4xmT512m1LqUJ2Orfpk7iC+7xPQ2M1RANw+aQRFRBkEQSkNjdkyNro1/5zmyVANAA6VUv403vtRjNuMTJpCxCv7+/s/NDIycjfnnC5FtY6PPc87IM0FcaYOctZZZ/Vvs802X4lxlqzfz7RKWjPuwYGDg4NPLxQKdBGWGMgJAFJKOfWjwjmnnH1yEp39Q69o//X4x5HC9ydaFA5DkQW3aAq4Qik1otl3q26ZOgjnnDbk9ECsW3TLvkBKSZdYeXsqDOOdnud9QsMYtBw5dDJ8o75/sVg8OgrJp+iFF2vQ6UqXGHVSUABlMwE455czxs7VEO5bSqnjNfo17ZKZg3DOX8cYo+BD6zYwMLDLTMGvtVbScKAQ4lpEPEVj2Gg7aCAhxBWIeKYGna50oROzIAie0Yp5HJz5Ow3hwlqttv3o6Og/NPp2ZgbhnFP8DZ2TW2O6hmG4f6VS+bWNUrN1DGF//f3vf38MEQc0dDxBKUUb2qaNc/6XGJhbg1R3ulD4v5SS8LGaNiHEDxGRjo/bNgB4i5SS8ICNWyYzSNqlFSK+3BUKuBDiGESkUAyKHdqDLISIjxHCepSteFvWsJ5JTyQ+xHgRPWhEXAwAi+Mw9zFE/F0QBJRyPNEMbs7bYmb5vn8IAPz/JNm6/T0AfFhK2XIZxTn/IGPsQg05NyilbIIf9WJvNASY6pJ2aQUAr5NS0ilFqhYfhZJxE1MyEfFLhULh4jSnHabCUl2NgYGBCxhjUw7QhAblrUwBVXDOr2aMnZrECwAqUkq/VT+DaAaCAaUfEULBp0/iwUCCbLczxuhD+6NE+B5E/FoQBK9pRdPA0R9WSlmFujidQejUasGCBfTLZLv5KyqlRpNegHbfL1myZGDnnXf+JAC81ZQOAHApZeYhETQT0AZTIyK20UEonyUxoQwAXkJHu20chHIt3qZhn/cppT402a9UKu0ThiE5Ct1QJ2Z9IiI52IYwDG+vVCrkGPU/pI9rRO3eo5SamPXb6PLnuI5LW3Xmz5//jMsuu8w4iNWpg3DO6UiRAtlsWttNpQ5B2vsg4g0psXkvVUrRL3smzTCKudFBqChNUg77b5VS+ya8VPQjdkiSgmEYHlOpVL7T2C8GvdaOxWrGh3NOpR0SUR77+vq2GxkZIZCMpo1zvpoxdk6SLhGe1r4RntZvNfpN6+LMQWgtHa9rjetuRAAG35FSpoWoofNxJ6HfUW7C+UEQ0DGi0xYjHH7RgGijg1CQYFL7qlKKThBbNs75wxE4Q8sTosmBrY7YHTkIxZEl3ohHy6yDo2XWT9o4CF0j6MT3UcaiccEeZw5isGFq1JWgc45OC04shLgMEc9Lent0v6/Vaq8YHR2laFknLcbGbbnsacFkykHiHyCaQfJmYYHowOPNQRB8wXSoEweJb2hp2p7Mm9aWw8W6XwjxAsJI0maq1/H70S8O1c9w0ixRDusdhFA/ZkxOvROjOSQS3av40b1KxZSkKwdZExdiMeX/OaWU8Wa6kYnBOtRIvlZrcCMijLF4c2tTIWrKQYQQx0WZcj1ZpszUHt3oH+fe6xwJTxMvtYMIIXZBRNr8mB4B3tvX13cEBZ+lNRjnnI4N/yUtncbxiLgmCAKdDWBb1r7vDxHulIV8Uw7COadTo1Sh2xb8Z82QCCnySinlu0wVSu0gnHN6gegkwagh4oVBEFxiNKhJ57ha7S/T0mkx/ldRhaPEY9Uk3pxzOvGxWa7VOwhBiRKkaN7sLHCDUoqwxoxaagcRQtxIm2wjroz9ft68eYdcfvnllJmWqnHOCdfJOWBYLNRmpVRqhMHo0vLO6D7AppZJ7iCp3o5/DqZceinla03JpXIQIcTBiGhcGst2w9RMuSim6N+jmKIrTRXX7Z90Dq9Dh3P+ZBJKYgs69Zt07SQpHZnmYJ8rlFLGpedSOQjnnJZI7UIlmj2HO+69996Dr7766pqLh5R1bvaiRYu2GR4ephfcunHOH2KM7WBBoH6TTjFlUzkRFrTm9BDb6lSpHMT3/d8CwPMMLT+klDLGXm3Fo1gsnuB53g2GMuh2/7tSSgsZsB3BaBlIe6TEmLAmNKYcJEYcpHz8vFlYABEHgyAw3itbO0ipVDo6DMOWocjNdIiEfDjKkd5fKfW/Fjo2HTI0NLR7rVabwHTNoN2ilEpdI8MgRbZRhSkHGRoaematViOc4bzZWWCJUsq4LIS1g/i+fykAnG8iKwCsllIOmozR6cs5p1/WLOoWTqu9oSNLsz4panY0hpoQlGrbSltJEbAkH+ec0GVelqTP2NjYNuvXr99qeeko1IQyBXVC0PdolhU5KbsutnMYhkdUKhXdNN0p01g7iG6wWf1D8Dzv8HK5/KOkB2P6fVymLfWRcSPfQqHw/FWrVulkrbUVOUZfp5t+U2DoRgch4GrKF2nXHlRKtb0T0q3BUq1Wn7969eqt9HfkIDpH3+NKqbYlIHzf/4xO5DYA7C2lvNP03bJyEILm7+/vN13WfFMp9SpTAXX6L1++fNtqtUr1LVxeFn5CKeUsJdUgB6Ne5UYHoaC9gzRs0jYwj3NOpe0S8zEIKqh+WeIq3D2ucU8Bk0kt8R6Kc04h7In7xPHx8aetWbOGQuyNmpWDcM4JFYMqqJo0J8uVVgwdn2b9Laqd8aKotBfd0DtpcXkBmuL3NCA4zUGEEKOIuCxpfFIEgAHwAxXXud11wlQMMJ2oR1TXcaL6VCt9S6XSUWEY3pRkjwgi6XdSSkJ0MW62DkIXc1OFV3S4ep53TLlc3iq3QGesbp+0xSvr+LTN59aVp7GfwdJkcmjjDKILd/Pgxo0bd2lV/sFCDluV046bqjzVjJDuPhgALpdSGu2XJ/lZOYjv+3cBQNtMrwaF/qGU6ghgmYN8+FOjyqlZ3cyzuBYf5a0kJT6RCac5CP2HLthCUkmyaBVARYWoaE7Ptlqt9oLR0dGWtSM551RyLhEYJE3lKWMHOeOMM+YvWrTICKdK52TF5VOK48MoiabfgO5P4rNy48gAAx4TXc8999ynbd68OYiAnVsuH2KaWzmIEGJlVHp6qvxaG95tgQp83y8DgDCVvYP926bbGuSjPxAV+NT5MWqqmrGDcM7JY8lztRsiLg+CwDYVV5tPfcdisbhboVAYQkTKWmuXp/KrqJ75OptLJCvB6gbFGYb0kh7WglazGeSVUS1CraVqfZHPevpxgCc9DxeFd9KaodX4Bz3PO6NcLn+tWQchxAZEpGpUbRsAfFxKaY0kaeMgb2GMfTZJsIbvrdIdDXm07E6XmrVa7QAA2DnKCxgg2J8I+ZvC7G+LilhmFQmsLT7NKOPj4wcS7I/neYsRcTwCUXwkyrWmI9utogQ4539gjO2twWBaIZnh4WFvbGyMsi7p05Elr4aMbbtQ7ULaQ9Tfhfi+fxIAaCHfIOLbgiAwfV+nZLJxEN0jwikmAwMDT1+5cuVjaY2Vj3/KAib7LCp4Uy6XvyuEODlOSW41W/Wyef8ab7QnQkUM0geqhHiSJnLDxkG0sJnqrP0HpdRze9n6M022qDYIwe40XXo00eWaKB2BqtlmDmeUtR3j8m8UBaALqHGdUurkNHLZOIhp4RYnabVplJyNYw0wemeb+trFRl2kTBs7iOkRLwD8h5SSICLz5tACvu8fG+F/0XFxJxsFmd5sWoKNMfYaRDS5FnChk1X+RyNjYweJwOEIJdsk/1xEIeNUTzBvBhYQQpwShuErKYaIMfZnAPifxh+aFFHCBpJM6/pArVZ7aaFQ2FW3iGe1Wv1UX18fOVVSDJmtTM3GPRGG4aEuwM+NHMTyDuRdQRBklvHn0qq9QMv3/VEAoKPp7ZrIs9HzvJMmIxJ83z8SAJxhd+noj4ifJgAEXQehVGOd41gd3rp9IvT7S4IgMEYwaUbfyEEGBwcXFwoFiijVbgDwJimlCZqgNu3Z1JFzvhwA6N5mpyS96tEGOedaCIVJNE2+B4DXI+K1GmPoiLol+LTGeOMudHzf399/6MjIyAPGg5sMMHIQm0tCxlgmcU0ulO8FGsVi8RTP8y5ljJmc9D388MMP775hw4YnbHEBGnS/ARHvj5ZxWtHLFPyHiImZpIi4keBLNe38KUS8N6osRaj022qO2aqbCyDCeqKmDqIbLDfFAxGPC4Igz6VueJQEJRohtV9rC7RNRS2DIJjAeTIoR9b4Qj0SvcTn0hI4jja+Naq9vrvty5li3INkB8rXiFOLKbBQB31+GktXtdGtHcSynPPblVKfSWG8WTfU9/33UHEYw8OORjv8XClFRYEmGuecyt21Ba1uYkiqQPVWpdQYfef7/plRAZ8rOm1wAChRtdFJvpYZmBRASxWpKC/IWTOaQVasWLHTli1bTPPJnYI0ONO8S4Q45xT2QPVBjGzfRNwxpdT29f8vhPgNIrYtfdCEzi9p7zNZ6iyWj8KJOtWmAbrphrA3CpdUrs1WGaOHNDg4OK9QKBhB4KSJxbdVqhfHxejsFGT4Akfy3aqUmlafTwixJyISBnDbvPUW/FcWCoUP12q1Z1GYvePszFYqb47L7d2mEbjZzmzvUUqtc2TXaWSMHCSeynUqA00xQcRPBkFA4G5ztjlaUjXab0QptVXYe1yT0XbPR861kjbWiJiq0pfmw34fY4wyAimieYnmmOkvcIpkKB1+Ng5iWh3VChNVR/iZ0IdzTsj3/8/BkmpKXaohLqVsWQDHMiW63pzXAcBC+nXPysYA8KMwDG9LmZNytVLqjVnJSHRtHESrTl6d0IklwbJUsJu0Oed0/2P1y9hObs/zDiuXy22r1Pq+LwAgLUDfxmhG0T2mNTH1lggy6klENInIaKT/xaik2ptMmNr0tXEQHbiWabIsWrRo3vDwMOU4zJnGOaf9BiU3uWy0vD1ZKZUIVEBMDbLuXMqYOS2X2M5Jwho7iC6yRj3jpKqrSULOtO8556azrI6Kt9ZqtVeNjo5SLJx2W758+R7VapWCGp+jPaiHO0ZlqV8tpfxGp0Q0dpB4w/lREwERcc7EY3HOdcDdtM0HAHeHYfi+NFlxMW7YxxljnTy+1dZRsyMdINCdzR2a/Z10M3YQzrnxbXpSYXsnmvQAkQgsgrBzrQrWNxGfLu8+opSikx4nLSqTTVHVFMoxoxrdkIdh+O7R0dG/dlpwYwc577zzFm7evHni5tWgbQU+YDB2RnR1ueegfGsppemtuJadonJ1Z8dOYhL7pUU7g05UATm47777Lrr66qu7soc1dhAygi42U73B+vr6dnQVYZnBg0hF0vf9iwEg9S99tPkkGM3zgiCg5VBmLcYK9gGgGL2A027jM2NqTviKMAwDFzkd5qz/OcLWQSgfmvKitdts3Yf4vn88ALjYNP5QKZWIuK5tcI2OUcLVc+PoWZpVeqVdF4ZhpVKpTEEblUqlE8MwJOie+hJqw4VC4epVq1a1BJZzoZCVgxiAl9XLOCsvDC0yLBufG4VbXB4EwX+6eKA2NIQQR4RhSDPKG2zGOxpDWAdBBPDxuXp6QogViLiyFQ8AOFtKaXRoZCKvrYMcgYiURmnUqtXqnqtXr05d9tmIaYadOed0srJPChabYohQXYSSFKyShw4NDR0YhiGByVG5N9PCrMkMGnog4s8A4NuIeGOzlAgDQPLMgNGtHIT05JzTicIuhlYpKqU6EeNjKJZ5d875FxhjacIcnvA877WEWWXOPfsRFFyJiFTe7gTG2PEpQ/PrBb4JAL5GcLTRTfhvW2kSH01TTZVna2i7pVarHTk6Oto2ukCDzlZdrB3E9/0RCpM2ZOqkpJkhT+fd46QeOo83wf6tl+Nxz/OOTQoXcS54CoKECI+IlOS1o+d5E3/j9OCJf8efxwHg/jg7ceIvY4xKSdzved79CxcuvFm3IKrB7DGp1fXRHclJKVRsOtTaQYrF4lGe52mFPDRwPrEZnKZrxbKkxzmnX6pDLHn8I7LbkeVymW7b89bCAlGYzNcBwKjgEgCcI6Wk4FBnzdpBSAIDjNgpgRHxs0EQGKdTOtM4JSEhxOmIuN6SDJW+pliqrKryWorVe8M457Txfo+hZJTTfqTLrMK0DkJpktxQCQYAL5RSzsiSxpzzPxPeq6nOcX+CCOvlkgOWarkfZlmyjt6tK6WUE7n6LlpaBzHBiK2fRS4LguC9LhToJA0hxEiEDG+675oU8QdRFO6RnZR3JvMaHBzcq1Ao/LwFPliSalYln5sRTeUgRNBmrUjQ/vFU+JskTXvp+xR3Hv8bpYSaVrhtqvry5cv3q1arLwcAOl5+GkHrROWUCbDgFinljztlr1Kp9NIwDF8aVxrbBhEpyvj3hULhuy4qA8fv1tpo00/JZqbtx0op2z3iNF6pHYRzfmqUZ02I76ZtRoFac84Jev8cUyUZY1XP845Le5wrhDguDMPzIyTFo9rIcAddqgVBQEfQmbQIm/k0AFjOGNu/DYNvAsClUspUqI9DQ0P71mo1giJqVwCpqRiuQBxSOwhJJ4S4CRHbPbimSkQoeKcHQXBVJk/SMdEoyI8q3hqXmQaAT0sp35FGHN/3PxRVhr3AgIYT4OZGfr7vbwCAxKpOdePer5S62EDurbra7kWiY+e1SqmlaXjTWCcOwjmnU6lPWwjzB0Q80mW5ZQsZEof4vr8UAD6S2LGhAyLeFwUeml6mTqNik6AWE7hWKeUsdIRzbhx/R3Ig4oeDIDjX1HaT/QcHB59eKBR+ZIoGQ3cv4+Pj+65du5YCQK2bEwch7pxzUsK4etFMyBWJlpF0o2sM14OI7wiCwOaHY+KBRnueUrTPsK7tGAEvEB4b0UjVItTFjzHG7Ov8pYyXEkKcGZWnswG0O1Mp9Yk0yjtzkDSofI3IemkUcj22VCodGoYhOb+prb6tlDrOVh7OOYVYpI5bi3GnjOPmJuUulUonhGGY9t7m8UKhsMeqVaseSmEPipimkBftRhWppJT1EcDaYyc7mj70tgw451QeyypkOwzDt1Qqlc8ba5DxAM658YNhjG1WSs1PIxrnnKBJaTOctl2jlLJGVrHUv5nMw0qpi2yV4Zy/PjoYMK5fj4gvSlOo1amDpPy12TI+Pr7bmjVrKH6nZ5rv+5sAwPRlT53bwTmn2UMnUC/RVhs3btx23bp1dBxs1GI0SFfP41dKqRcaCdDQmXNOx9gvMaSRKtLXqYOQ4CmOQ2m4s/sCQyM27R5lThIipHHxn7R7D5s6LO30je+caHY3apxzqu3xX0aD2nSu1WoLTVFZ6snx6EgrKl89BXKtKddNSinr0H3nDhI/XHoYtr9+qRTSNJpWNyEEVYg1PQl6SClF+LbWLQM8K0IDmZaIpCOcA4TGRjb7tgtxT5Jp+fLl/1KtVqmuPUUP67ZqrVbbeXR0lAA1jJtzB4lnETrxoJMPqxatG78crRtpzdnVZrPMcXHvYYMck2Co05RSG0yNKYRYiojGx9ut+LiIwRNClBHRKJ4tTZWzTBwkdhLaUFm/5ADwSSllV0GvhRBbENEEKR0R8flBEFCmoXUbGhp6Xq1Wa5lMZEo4DMPXVCoV46zFYrH4Zs/zjGeeNg6yWEp5r6n89f0553SVQKeK2i3KW/lodNdmlXefmYOUSqVdwzCkAi3G9wd1mnct+tXmwCEJVFr7iT61l6NN9TYmY1r1LRQKz161ahVFIRu1ODHMVdT1A0opk6VRU1mXLFlS2GWXXaj+YEvw7iYDf6OU2s9I+bhzZg5C9Eul0tGxk9hm3hGZVKcQNkaJZ0Dj4pgA8GMppZMgOcv9TzN1b1dKHZTCDmnz7idZr1dKvdNWjoZZhMo7HGNCy/O83crlslEBWqKfqYMQA9swjQblb1RKEZhAxxrn/E7G2F4mDAFglZTSxd0FzSBWqQSN8qZF/aDqu1FRTbqTSdVsT9KaMbWpyUiltaWUnzJVInMHiX+NU0NeElx+oVDYvVPgc5zzx0xzETzPe3G5XP6Z6UNo1T/CrfpcVFGWyrXZttT3McRYCEFRwlP1EE2FcZ3E5Pv+iQBwvYkctpXOOuIgsZGvR8QTTZRq0fcN0YWTTo3uVKw455sZYwMGRLYopUz6J5KOsHQXIeIPAcC07iDRdpZz4/s+Xc7dbHFhSsGKt2/atOmwdevWbUlUWLODJfztOqWUaQpv9kusSZ3jqEyKCXqRph3adVuhlBprLpCMAAAOV0lEQVRxQKclCc455Y97BjycbEIb+VFMFiJeE/1iHmggyyOe573GJWpKqVQ6qlarfc3QSW5BxFOziNYWQlAJaxPYVKtqVB2bQejhxpeIlEa5g8HDbtX1AqXUpQ7oNCXBOUdD2n+ILuMyAYQeHh7uGxsbo2WqTsIWHctSZWHTasSJ6sYBlBRdrHN8X1ZK2aYn68jyO8aYib2t9rEddRDSOgJce34EuOYETzUMw4MqlcrtidY07BCFd/9rFN59n8kwqrknpaTSEJm12HZvo6xCRKyPSfpljHT5hSAICMIz01YsFl/meR6B5h3RcIxPcEgEDEdJYnTIkVnjnNNqhPjrNqvTvI47CGnjMJRiVClV1LWQbr84xJ1SPU2a0wQlE8Zzsa/v+7TsNAkDuiuKJjA6lSS7dsVB4pnkgAgjKu2Jz51Kqb1dvyClUmlJGIZUgNOkEfCyMQSSCYO87z8tEFcP1r4dt73E7ZqDkKrxbTtl6xkn5cemeiTC+nWxn5n27llGjQq69s9f4s5YwCZXPcpHMX7fjQe4Vn9oaOiZtVqNQqptbqBvU0od6lqmGLnD9FLJCUiAa11mKz3OOR0WmKQTW0VZd91B6AGeddZZCxYsWECnL6bgw87CF+pfpGKx+CrP8yiOzKR9XSlFSOh564AFhBDrEPHdBqx+q5Qyvk/qCQeZVNLiaDWT+5AVK1YcsGXLFtP90S+VUi7ueAye+dztyjmn9Ow3GVjACtmyZxxECLE/IlIyjEk7IULQM/2lT6S/dOnSnQYGBkzvEXoqGzJRyRneQQhxA9UvMVDD6pSxZxzEBlsLAPayQfKmEA6qGY6IJzVA7NPdx12I+EcAMI083aiU2tbggeVdU1iAc073Xy82INHboSZJigghLkPE85L61X3/D6XUQoP+E12FEKdEWU1UD9D1cgiVUiahKaai5/1jCwwODs4rFApPmhgEES8JguBCkzHUt5dmEFPkvluVUi/VVXh4eHj+2NgYFYMc1B1j2i8Mw/27XbbYVOaZ2J+qXTHGTEvXvVMpZVzXpZcchJJZFhs8MG382Rhg+/0JgMsGrJt3BQAupQxSE8oJtLWAEOJ8RDSKw4tqIh4cBMFPTE3bSw5iFByoi8aYEobIyJ6I+J0gCIwy3YwY5J0nLMA5/6rplUBfX992IyMjT5iasCccJIa5N6oVAgCvk1KSoZo2IcTJUT7HJYhofPZtasS6/o8ppWyjAlKwnVtDLfL171FK7WFjpZ5wEJvYp3YQMhEioG3hFRsbThtTq9UOy6IccWrBZgkBm2xCKjkdLa8IBM+49YSD+L5/MQC8z0D6R/r6+nZrnDKjEOhXRjU8qMqpSZ6AAVutriuVUiancVpE805PWYBzXjE9aAGAD0sprUow9ISDcM6/QtVfDV6CrW5FhRAfQcTUBVMMZGjV9S9Kqd0d0MlJNLGAEOLnBEhtaJyjo/qQNiXLe+OYNwoOpBp7JmvEqRgsIcTBiPiZqIDPcwyNlll3ADhJSmkEKpCZMLOIsA3SS1Tj8H4pJSXAWbVemUGMTrAYYxOlvWzgX6ysZDjINYqHIftZ251zTjk6RqUcEPHKIAisy0J33UFsTrAYY1Qnj2pNGGeIdejteSgMwwMrlcpfOsRv1rMRQhwRpxUb6ep53mvL5bI1Qn3XHcT3/SURrI1p9p6RkTQ7PwAADyHibqZ4WC3of0QptUyTd94twQK+73/CND4uKhJ7d1Qkds80xu26g9hkhqVRuNnYxjqJQohnRMukXclZ6BM5zjJEfJ4p3zAMX12pVKhCVd5SWMB29ojQc1JjFvSCg1CNdaq13o12D2OMame0BWiwneUA4LtSSjp6zlsKC9hW2AWAQ6SUVJXKuvWCg5jiG1krWz8QES8LguC9usRsK93GGFVlXT55v+kW4JxTcCndfZi2q5RSp5sOauzfCw5ieoKVVmequ0GzBgHYabcUS8G/hWF4RKVS+aM2s7zjhAWEEM8Jw/AHALCTqUkA4BVSyu+bjuspB7E8wbLWmfJAgiD4gA2BwcHBZxUKBZqubUrLaUce28g2W8dwzq9ijL3DQj8rmNFmfLo6g9iu7S0MRtln7zKdNRr5+L6/AgAop8SmLYmKuFxjM3AujrGEXpowlcvDka46SIpli8k74wzYYfny5dtWq1WC9jSumoWIGz3PO0VK+S0T4ediX9/3jwQAKpJjg5Z/nVLKJGyprYm77SDGN6MGL8wtFNSWdtZo5JemsCUiUs3x13UCP9fATj3VdenSpdv19/d/GwCs8M5cFuohw3TbQQhV0fjXWOOJZopyyDmndE9K+7RpfyCwiLSFPm0Y9/qY4eHhBWNjY581DFydUgsRZRAEJmByiSbptoO4PsGi5ct5rmeNRita5kTXk/np+Pj4a9esWUMzSt4YYytWrNipWq1+GhGPtjTIPdVq9fDVq1cbofIn8eqag2RwgpXprNHESYYZY4SOYtUA4DuPPvroievXrzdC57Bi1uODSqXSPmEY0omVDfzspHbLlFLOarpPEu2agzj4FZ7UgdJuh7OeNZq9YymXWkTyWgAopq0d3uPvf1vx4lIYV6ZZaiPimiAIdIoLGZtqJjsILc9K3URUd+HkiPg7RLygUql82fjpzfABvu8TcF9LXAFN9ZyeWjXynKkOQhmIVD/d6DZc0+BG3VyVSWaMXaqUusCI+QzunCKEpF7rexljL8mi3FzXl1gkAOecfjVfZ/CcNzLGLuzmrNFiqWV74zuNHO1LGGMXpA2wM7BnV7raBh82CmuLdWWidNdmkNhBqMoUHZkSVm5S65lZo4WT/CLaU7wwSQmN76k++3uz2HBq8M68iyvnAIDXSykzX5Z21UHoaRSLxRM8z6NiNc9s8XTG4uVUz1dvsijf0O6FvAoRV9ugAWb+llsy4JyfxRj7mOXw+mEXK6UIKTPz1nUHIQ0JeIExJhGRfoG3q9N6HWOMKjd1fa+h+yQ4539ijKXKYmvgtT4MwysrlQpFBszoxjn/EWPssJRKfF8pZXtJa8y6JxykXur4foRicAgNj2aPGdc45xRH5BqClCpwUVSwFXxNt404ODi4uFAoEP5yqmZTZzANw55zkDTK9NJYGwQOHfkB4EuE1JFF4SAd/rZ9LAsk1bOzKuNsK+/kuNxB0lqwzXjf9z8DAG/NggUifgMRv4+I35sJUKdxnJUxeHRsuxuVUsdmYcckmrmDJFko5fe+738IADK936DLxih48nue531j4cKF1w8PD4cpxc5kOOf8bouEM6vKUK4UyB3ElSXbzyTvBgCKE+rPmh0iPhnfp1wXIeDT4cZD/f39D65cuZKOj43akiVLCrvuuut+YRjuFy3tqIbkfoyxyTJz98QhHto1NzjnhPByvK4QAPALKSVdBXSt5Q7SIdP7vn9s7CR7d4hlI5vN5Cz0ifG/Jv4df7ZFxO0ikOepvwCwWLN0BIWKfEApdUeSXhbA010va5c7SNJTdfi9EGLPuDLSGx2S7QVSNDuRk4y0E4ZzTgGFq00E7uvr23FkZOQBkzEu++YO4tKamrTi3HYqIVbQHDIjutHBAQBQKFDT2YSKGiEiRURoNwA4Vkp5o/YAxx1zB3FsUF1ypVLpqDAMyUnS5EDosutYv+hAYjwMw4uDIPhgI1MhxEGIqL1niccPRVW7uoYrljtIx16drRmde+65TxsfHx9ijL2bMbZzF0VxzppQJcMwPLs+tZiyBsfHx+8GgPkGDKdKXRiMcdY1dxBnprQnxDmn+hXvmY2OgogXBkFwyaR1OOd0smZSAOcOpdSB9tZNNzJ3kHT2czq6zlH+nTG2q1Pi3SV2KwAsocxJi2piVaVU5sfjrcyTO0h3X5ym3AldHhFPo0+UcfdvPSiilUiI6APAPowx0/TYnbNMimqnTO4gVo+6c4M4529jjJ3GGDuuc1wz5XQzY+xIEw7dPMnKHcTkSXWxL50AxU5yHCK+vIuidJw1AHApZdBxxt0GjuuGwrOBZ5wSQDMKfSi/Qicjc8aq3s2aj/kMMmNfm6cEX7JkycDixYsPQUT6HEpFY6K8kcUzXK1G8X+ilKKkuo633EE6bvLsGZ5//vnbb968ea8wDKnI6V6e51GIC/2bAg0XxH/r//14BG5IoegTfwHg8ajmPIV33EV1/gDg7lqtdvcOO+xw16OPPnouAFAB1U62zUopk7sTZ7LlDuLMlHOHkO/7zwWAzzPGOhZpW6vVdh0dHf1rp62cO0inLT6L+Akhzo+DLzPXChFfFQTBNzNn1MAgd5BOW3yW8YtnE8IFy3qP0JWYrNxBZtkL2y11OOdUdmBVhvw/oZQ6M0P6TUnnDtJpi89ifkKIFyAi4V4dnoGatymlrIrqpJEld5A01svHNrWA7/tFAHB9sfdElJBVj5nWEevnDtIRM889JlFQ4gGIWAaAo1xpXygUnr1q1ao/u6KnQyd3EB0r5X2sLeByb+J53uHlcpnQGTvWcgfpmKnnLqM4k5AyDLURTZpZKwzDfSqVyh87acncQTpp7TnOy/f986JswstSmGH7TsPR5g6S4mnlQ80twDmn4Eqq72gUvo+IXwqC4FRzjulG5A6Szn75aEsLcM4vZIxtBezQipzr+ue6YucOomupvJ9zCwghjgjD8CKNky4q7b3SuQAaBHMH0TBS3iVbC3DOhwHgLYhI6bj17U+IWAqC4LpsJWhNPXeQblk+5zvNAoODg/M8zzseAPYEgMfCMPxlf3//f4+MjNgiwjuxcO4gTsyYE5mtFsgdZLY+2VwvJxbIHcSJGXMis9UCuYPM1ieb6+XEArmDODFjTmS2WiB3kNn6ZHO9nFggdxAnZsyJzFYL5A4yW59srpcTC+QO4sSMOZHZaoHcQWbrk831cmKB3EGcmDEnMlstkDvIbH2yuV5OLPB/ZmKYyF+vC3EAAAAASUVORK5CYII=" vertex="1" parent="1">
          <mxGeometry x="270" y="130" width="60" height="60" as="geometry" />
        </mxCell>
        <mxCell id="nt5jMm1TpiSUR0SnXHAM-2" value="" style="shape=image;verticalLabelPosition=bottom;verticalAlign=top;imageAspect=0;aspect=fixed;image=data:image/png,iVBORw0KGgoAAAANSUhEUgAAAMgAAADICAYAAACtWK6eAAAAAXNSR0IArs4c6QAAIABJREFUeF7tfX+cJEWRb0R1zyK7M11RvbMu4IoL3gosICJ6Anp6Jyj+OFSUH4JP0UPRh3ieIPiD51PUByog+AMUD/XUdwqHB5wicgo8FJHTE4TzgXKnyC3LLLizU1kzw67rdFe8Cl6PNztTVZnV3dPTtR35+fRfFRkR+c36dlVFRkYiaFMEFIFMBFCxUQQUgWwElCB6dygCOQgoQfT2UASUIHoPKALtIaBPkPZw014DgkDXCDI6Ojqyffv23SuVyh4Dgp0Osw8RaDabY7vsssum8fHxqW641xFBfN8/xPO8o5j5OAB4RjccUh2KQJcQuBsRr2bm7xpjft6uzrYIQkQHIeJpzHxqu4a1nyLQIwSmEfG8MAzPb8deYYIQ0Z8DwNUAMNqOQe2jCCwRAjcbY44sarsQQer1+vo4ju8takTlFYE+QWDKGFMr4oszQVrk+CkArChiQGUVgT5D4FZjzF+4+uRMEN/3v4uIL3FVrHKKQB8jcIUx5i0u/jkRhIjeAABfcVGoMopAGRBg5iOjKLrZ5qsTQXzf/zEiHpanjJm/johi8AGbUb2uCCwiAnsz8xGIeJLFxreS8O8rbX5YCSILgI1GY9JCjuOjKJLIljZFoC8Q8H3/OET8hyxnmPn3URQRAGzPc9hKkFZY9//kKDnXGPOhvkBFnVAE5iBARHJffjAHlL8wxtzaEUGCIDhRXp+ylCDi08Mw/IXOjCLQbwgEQXAgM/9bzr17UhiG3+iIIER0JgBcmKHkQWPMXv0GjPqjCMwiQES/BYC1GYi82xhzUacEyXtMFYop67QpAr1GgIjk80CyP9Ka9fPA5RtECdLrWVV7XUNACdI1KFXRzoiAEmRnnFUdU9cQUIJ0DUpVtDMioATZGWdVx9Q1BJQgXYOyfIqCINgTEfeYmZmZmJqa+vfFGoHv+3tXKpXVcRyPGWP+czHsrF279glTU1N7zczM1JYtW7ZhfHx8UzfsKEG6gWKJdARB8HZmPoaZn4uIT5jn+s8A4IZqtXphp3uyW3ZeAwBpqeG3JAvE14RheGkn0LXSmM4AgKMB4JB5ukwSnr2Vmb8RRVFmyojNvhLEhtBOcj0IgucBwBXJDbOPw5C2MPPboij6poPsDiL1ev1wZv6So51fM/MJURTdVdROK0P8kwCw0qHvzTMzM6977LHHHnWQ3UFECVIUsRLKE9EHAODDRV1n5rOjKLrAtR8RnQsA/9NVviW3DRGPDcPwBtd+RHQdAFgzaefpG6tUKkds2bLlV652RE4JUgStEsr6vn8CIl7ZruuI+LowDDNz6Wb1EtE7AODTbdrZjojPdsnJ833/7x1S0bPc2NDK/Ytc/VSCuCJVQrmRkZHRSqUiuUTDHbi/rVKprNuyZcvDWTrkIxwRf9OBDUDE+8Mw3DdPhy0F3cW+JM5GUfQ6F1l9griiVFK5IAg+xszv6YL7lxpjTs/SQ0TyESy1zTptbzDGfC3HjkTA9uzUiOd5+09MTNznoqdUTxAieicAnAIAB7oMrk9kZLPYbXEcv2tycvI/eukTEW0EgCd1weZ0krU6kqYnCAKfmSVi1HFj5juiKDo8TZHDvqIi9i8xxrzLpUNpCBIEwXuZua3iXS5A9EDGNJvNdVNTU+M9sAUjIyNPq1Qq91tsfRoRbwKAA5hZtiVkRoQQ8WVhGH53vj6H154JRJRo0z3MLCFfCctmtkajsXp6evp38wWISLZMiI9ZTf58Ppv8gT4EABJeznuNeiB5Uj3VZR5KQxDf9yXaMT9u7zLGfpL5iDGmaJSnLf9rtdpRnufdmNV5/sf3yMjIPpVKJTPCg4jvC8PwY/P1BUFwDjN/NMtOpVJZv2XLll/OXncg1AuNMQt2oBLRPwHAKzLsbKxWq+vnrt3YCDU0NDSyefPmaRu4pSCIbfJsg+yX64j4vTAMj+qFP7bo1fLly1eMjY1tnesLEd0JAM9M84+ZPxdF0Wkp/+zydMh6XbnPGLN/Sh/OweCNySa6BRVwiOhHAPDcjH5fMca8ce61er1+aBzHd2TZcf0OKQVBarVa3fO8Lb24sRbTRmtV11YtoysuBEHwcma+PucGOWxiYuJf5hFEIlWp1fUR8cIwDM9Kudnz9vtsrVaru839Z6/X62viOJbXoNQmhczTFiiDILgx+UbJ+nO5yxizw0o6ER0DANfkgLnWJe2lFASRQRLR7QCQ+gHXlTuqB0qYuWfVW4IgeHqSUnJPzrBubzQar5593yeiNyURoi/lvJK9IwxDecffofm+/2ZE/NscO180xrx59noQBJ9n5rdmycdxfOjk5ORPUogovomPWe2dxpg/rsPYSk0ZY6yb/Vr3XTl2FNbr9f2bzeZNiLhbD+7lxTDhXI2vW8Z9399kwUu+677GzHsDQG5h5qziGvV6/clxHG+w+CyJg1LW6QUAcFCObGbtW8fig1L3+ZbWKnteOPiHyXeO+GJtpXmCyEgkOW1mZuZliLgOAKrW0fWHQBTH8Y8mJyf/tdfuBEHwCWZe8FrUhh+5UZ8kBCulb5xuuDzbzHxlFEUnpsn4vh8gorwC7tqG//O7vMsYc4mLnlIRxGVAKvNfCLS+3eTfvdOC4acYYzJfvyQRMqlGeFuH2LPneQfkLeAR0cUA8Dcd2tm8fPnytfMDFFk6lSAdot3v3X3fPxURL2/XT0T8SRiGh9r6E9EVrUVcm2jqdWa+LIqit+d1bhFe6lR1sviZu1o/374SpK3pLFcnIvoUAPx1G15vGhoaeubmzZsfcenbwavWbcaY57vYqNVqz/Y87wdtvmp92hgj2RjOTQniDFW5BVsLeh8BAKfoDQDcVK1WTx4fHx9zHbns6jPGSOawayq6rIdcNjw8fNbGjRu3udqRsy0RURZBXU8pE93vb0W5Ylc7IqcEKYJWyWVrtdpzPM/7YhJRWrB4N2doG5n53VEUXdXucIMgOImZZR9J3onFknpyShRFsjhZuLUylWVl/68spL9WFjJd1jzSnFCCFJ6a8ndI0jYObpX43xcR1zDzZgCQPek/MMb8sFsjbCUYSnTrTxDxiQkhZIFQsmjlvL+8NRpnF4aHh1cNDQ29SMLHEq5OiCkBid96nvcLRLx+YmJCEjbbbkqQtqHTjoOAgBJkEGZZx9g2AkqQtqHTjoOAgBJkEGZZx9g2AkqQtqHTjoOAgBJkEGZZx9g2AkqQtqHTjoOAgIUgnZ8wFQTBacycVWLSGGOCQQBax1hOBJJCIaEsqKd5L/W5unFGoewjlv3Eqa2Xm4jKOUXq9VIhQESvTiro/GOO/c5Pua3Vaus8z8utHO66u2upgFK7g4kAEUmS5uqc0QfyCpSHjlPiGxFJGZdVeYpkG2az2bx2enpa0h60KQJLhkArGVL2vzw9x4m7jTEH25x0JUiRYsO5B7PbHNLrikCHCMj2Y5fqjdYPdPHDiSCtLFJJglvWofPaXRHoBwQk2TJ3D/+sk04EEWEiyisP0w+DVh8UARcEpBL9kWEYSp0ua3MmiGjyff87UsLSqlUFFIH+RcAauZrreiGCtJ4kXwaAHarg9S8W6pki8EcEHvQ87+WuVeELv2LNBVpft/S2KxMCyUGnX0DETxUlh/NHehoYEkrzPO9UZpY6SKml9csEovraNwh0GgX9cxkJM0shb9mu+4/tbgvuiCCzcEoxuGaz+ZfMfAgz75GUqNm9A6gfH1xGSztttQNT2nWJEVhQAb7lz63GmLbmWg4gbTabjy5btuxRl8rvLuMv/A3iorQdGdsBK7pa3w6q/duHiLIqxLdNkMUYrRJkMVBVnVYElCBWiHYU0CdIQcBKLq4EKTiBSpCCgJVcXAlScAKVIAUBK7m4EqTgBCpBCgJWcvE8gkgBvDaHN4WIY0lm+SZjTKfh4sdd6MpH+vDw8BOHhob+NI5jCfPmlau0jfuDNgG9rgg4IvCgbPSL4/izk5OTv3bss0CsI4K0SvO/POf00nb90n6KQFcQYOZHEPE8Y8xn2lHYFkFax2lJOf4dDl5sxwHtowj0AgFEvCoMw9cWtVWYIJqHVRRile8XBJj5hiiK5I3HuRUiiMMh8s6GVVARWCIEzk22ocveJqfmTBAlhxOeKlQCBBDx6DAMM8+gnzsEJ4KsXr16xfbt2+XQ+gNKMH51URGwIfBtY4yUs7I2J4IEQfB+Zv5fFm2/AAA5beg/rVZVQBFYPASe0goeHZhnwvO8wycmJu6wueFEECL6v5Zjv642xhxvM6bXFYFeIUBE/wAAx2XZY+bzoyh6v80fK0FGR0d3bzQaeQdBfs0Y8wabIb2uCPQaASL6KgC8Ps0uM98RRdHhNp+sBPF9/8WI+M9ZilwfVTZH9Loi0G0E6vX6YXEc/zhD74PGmL1sNq0EISIp0CCFGtLaFmOM61G+Nl/0uiLQdQSIaBwAVqYo/oMxZhebQStBgiB4HzOfl6Gor3Z/2Qar1wcPgbzjD1x2qVoJYlk5V4IM3j1XqhErQUo1XepsrxFQgvQacbVXKgSUIKWaLnW21wgoQXqNuNorFQJKkFJNlzrbawSUIL1GfIntrVq1areZmZkTAOAIAFgPAE8FgIcB4D8A4FbP865upwbt/GGtXLlyv2azKakaLwCAdQDwZAB4AADuA4Cbq9XqVePj45s6hYOIjkHEo5hZTnvam5mHEXFDy86t1Wr16vHx8bxMjlwXlCCdzlCJ+gdB8F5m/gAALLe4fYXneWdOTExMFh2e7/sBIn4CAN5s6bsNET8chuHHitoQ+SAI/iyO48uTnX772ewkBzfJltmPtmNHCdIOaiXrMzIysk+lUrkqKcZ8kKvrUrwZEV9qjJHiBU5N0ooA4CuIuJtTh/9fJPrGoaGh48fHx6dc+1iOFs9S8/2hoaFXF625qwRxnZWSyskr1R/+8IefF7lp5wx1U6PROMjlYNVW3pKU2xlqA6ofJWV2pPB409aXiE4GgL+zyWVc/2GrsHXs2l8J4opUSeWI6HYAsGad5gxPbt4/yxt+vV6vxXEs3zBP7ACmi4wx787rHwTB05n5ng5sSNcPGmM+7KpDCeKKVAnlfN8/FhGv7tR1RDwxDMMrs/QEQfAJZj6rQzvNZrO5/9TU1P1Zerp0hN+2ZrO559TUlCQhWlupCBIEwYHM/JZW9KVqHV1/CETMfHsURfLh2tNGRPLK8/wuGL3XGJO5XZqIIgCodcHOl40xf5WmZ+XKlfs2m81fdsEGIOI5YRhmJdDuYKI0BAmC4Ghm/lY3AFoiHfcYY57RK9utaNKExd4liHiL1ApgZnm9qWfJI+KBYRjKztAdmu/7L0LE7+XYCRHxIgC4h5nlYJszcmQjYwylXSei/wEAH8np+9vkMOVLAOAhAHhVElLO24T3M2PMs13mojQEISIZ+BqXQfWrDCK+IwzDz/bCv+TpITej3PypDRFfH4bh/569aPuHRsTTwjD8XApB3oOImaHaZF1l/7nrKrbqNsz8rLQjz4jomoRkx2QMZ2O1Wl0/NxIWBMEFLdKndnFJVZeOpSAIEa0FAPmHKHu7zhiTNcldHZvv+ycgYuZ3g+d5/vx1DiKSwhlZr1IXG2MW/PsTkTwdUp8KybfL/cm3y77zBrYLEf0+h7ip3ztE9MNkgTErWLBg2zYRyatlZhHrOI7XudTcLQtBpNKEczy+q3dad5U5l4vp1Kzv+69BxG9m6RkaGtp98+bNj8y9npDqlwmp5t/QsyKXGmNOn68vCIKPM/PZGXYeMsbsOffamjVrdp2ent6aM743GGO+Nv963o0qB20aY46dN5YjEPGmLDvNZnPfvIDAbL9SEKT1qJN0iE4qv3d6z3XcXyI9URRd2LEiBwVyIGUcxxLiTW3zfanVas/2PO+nOf/s7w/D8PyUG/dvAODinH7PC8Pwj34Q0TuSb51P5wzhhcaYBQd0+r7/dYmmZfTb2mg01s5dryEiIdl/y7KzfPnyFWNjY3lEfbxrmQjySgC4zuHe6FeR3EhQt52W04MbjYYtVeRTiHgzAMj6wpmSwZHlh+d5L52YmLgx5QnyXGb+UY7/ESJe0PpIl/wvIVRmQ0QKw1CiYjs0IpLXOHmdy2oPIOLFSZTzYWY+HhHzCk3fZ4zZ3wXz0hBEBuP7/rOSKMUpiCjJbxrmtcwwEUl5zELFlrNUDg8PL9+4ceO2tOtE9GiHi4Szam8xxgiJFjTf9/dCREl27Li51rQSQ6UiSMfIDJgC3/dz38MLwHGFMUbWn1KbpTBHATNwTBIKz3xLIKJrWyHcIjrny85IdrExxqmCpxKkE6hL0JeIvg8AR7brKjP/Xj7c826oVatWDc/MzEgau6S0t9tcUlrWx3F8b7sGpB8ifjwMw/e66lCCuCJVUrlarVb3PE/Ct20FOJKs3tdGUSSZwLnN9/1nIqIUKC+crCinOC1btuzg+VG1NINE9CYA+JLNn7TrrWqIsj9FniJOTQniBFO5hXzffyoi3gAATysykuTGfVsURZe79mktTsorUpG0k7ubzeZrXUKus360me7+7TiO3zg5OWnLLthhuEoQ19kvuVwr9URCzKm5TnOHJ3s0AOD0KIp+U3TYtVptned5nweAF1r6bmXmc9vNUWuR8QsA8Cd5duTpJJEzl6dgxhNLQs6Sir+guazGa+G4onfQEsu3Ej5lNV9WpeXmkiwF2ZL6m2Tr6h1yzFiyZ6LdY5T/ODrf949MXrleAgCHJpuopIatvOIJ4R7fcjs0NHSVyyuVDS7JWPY878XMLJvB9gaAFZJ1gYjyWnn9rrvueo3LekeWHX2C2GZArw80AkqQgZ5+HbwNASWIDSG9PtAIKEEGevp18DYElCA2hPT6QCOgBBno6dfB2xBQgtgQ0usDjUAOQXpywtRmY0wnpWIGevJ08IuPABH9DgBWpVjqyRmFEMfxYZOTk5LDo00R6CsEarXaoZ7npZ6F3rNTbpNMU2sWZ1+hps4MDAJEdBsAPC9twMz8viiKrHWFrakmK1eufFKz2dyYhyoiXhiGYaeFxwZm4nSgi4+ArSoKMx8SRdFdNk+sBBEFRPTrVpn9PH13MvP9iCglLLUpAkuCADOvQ8R9AOCQLAekDlgYhke5OOhKENmkL5v1tSkCOwMCqZVX0gbmRJDWoS3yPpebmrwzIKdj2OkRuNkY47xD04kgrdcsKQX5lZ0ePh3gzozAlDGmyGYwcCZIiyQfkvLzOzOCOradFoFbW2eLFBpgIYKIZltt1kLWVVgR6AECiPiFMAzf2o6pwgSZQ5L35EUK2nFG+ygCXURAKnlex8xfTium7WqnLYLMKvd9/1REPL514qqrTZVTBPIQuDWvaLUFuilEHGPmTcmRcKKn49YRQWatj46O7t5sNg+J43iP5HFmK0/DOV7LN05qc9lg3zEaqqBnCBBR1n3Q1rfCYjneFYJ0wzkiksoTC4oez+pWgnQD5f7RoQQpOBdKkIKAlVxcCVJwApUgBQErubgSpOAEKkEKAlZycSVIwQlUghQErOTiSpCCE2gjSBL6k0Mtte08CGQFZDoJz0qYd5OEeeX4urRTfYvC13EUa/Xq1Su2b9/+ItmYwswS5t29qBNz5FNrqHagT7sOMAKI+JM4ji+KoujqdmFomyC+7x/ied6pclyWbBlp1wHtpwj0AIEvG2OsRb/T/GiLIHlHB/dgsGpCESiMQHJOyq+SCvH7Fe1YmCCW43yL2ld5RaCXCBSuwlOIIEEQfEKOH+7liNSWItBlBK42xshngVNzJggR6V4QJ0hVqN8RSKJcb42iSA7vsTYngoyMjOxTqVSkvlDmOdwtSw8CgPy0KQJLhYBLJPROY4wcSW5tTgTxff8yRPzvOdo2IOJpYRh+x2pRBRSBRURADj2tVCoSXT0/zwwiHh2GoZxDn9ucCEJEDwHAmgxNvzHGaDEHG9J6vecI5KzWy3HSTrsMrQQZGRl5WqVSuT9rdK5M7Dk6anDgESCiVwDAP2UAcZcxJrN21mwfK0GCIPjLpArdtzOMTBpj/IGfCQWgbxEgoijjWGunkK+VIK1ttVlnbffV7q++nSV1bMkQ0PNBlgx6NVwGBJQgZZgl9XHJEFCCLBn0argMCChByjBL6uOSIaAEWTLo1XAZEFCClGGW1MclQ0AJsmTQL51hIjqoVc1yPSKuYeZxAJCDiyTs/oNueUZEz09qlb0AAORQmtXMLCeN3QcAcoTA3d2wMzIysrJarcqO1IOZeW9mHvY8b0OyEU/syHju6cSOEqQT9ErWV3ZxIuIXAUAIktUeRsR3h2F4ZbvD833/BDlWLye9SFTfw8yntFv3tpUzdX5CujcDgJfj671xHJ8yOTn5k3bGowRpB7WS9VmzZs2u09PTFwDAaQDOR1bcVK1WTx4fHx9zHe7o6OgejUZDzoBxPWBGyodeOjw8fPbGjRu3udohooMB4EYAcD5CnJkvW7FixVljY2NbXe2InBKkCFollSWi2wHg8Dbc39BoNJ41PT292dZXDmttNBo/Q8TdbLIp13+QFIt2STOHWq32HM/zpKLJrm3YuckYI69jzk0J4gxVOQWDILicmU/twHunY7qJ6F8BwGmPRIYvnzTGnJnn5/Dw8KpqtSrfFJ1UvvlQUqf5XFc8lCCuSJVQrl6vr4/j+N5OXUfEE/O+SSz5dq7mm81mc/+pqanMzG8i+iwAvN1VYYbctmazuefU1JQEJqytVARp1dCS43fXA0DVOrr+EIiY+bYoin7Wa3eISOo5HdsFu/cYY56RpYeIZBfoUzq1g4h/G4Zh6tOu9fT4Xac2pD8zvzeKoo+76CoNQVauXLlfs9n8PgA8yWVgfShzqTHm9F76RUTTALAix6a8rtycVBE8gJlfnOeb53lPnpiYkDDtDq31wXyXZVw3SdSqVd3ymVmyzPxIFEWpr09BELyNmT9nsXMtAMjmvKOTA2P3ypF1ziIvDUF83/8xIh7WyxtsEWy90hjzrUXQu0BlvV4/LI7jH+fYutgYc8bsdd/3j0XEvAqCJxtjvppCkHcmwZ5Lcm761yb1pK6aY+c8RHxflnylUlm/ZcuWX86/HgTBlcx8Qka/rYj4nLmlQn3fvyGpjPjSLDuu58WUgiCUlEQBgLAXN9Yi2/iqMebkRbbxuHoielWy3iH/qKltZmZmt8cee+zRuReJ6IGsf15mPi+KonPmK/N9P++G32CM2eHVq16v1+I4lk1IWe1VxpgFu/iI6GYAeGFGp28aY46be61Wqx3leZ6EglNb1hMx5Q9AImapETYXklk3TFnK/Tg96lpVUX7VixtrkW183xiT+yrTLfutxbrMxb5qtVobHx+fmkcQ+U5K3Uaa1Ey+PAzDt6XcQLIgmBp9yqpGmLfXGwDeZIz5uxQ7t0n95gx8FvzxtMLB/5JDkAMmJiasAYxSPEFkkL7vb0PEJ3TrBloKPYh4QRiGZ/fCtq3aPTMfF0XRN2d9aS3yycmuWS01POr7/tmImPnBi4hPCcNww6xSyxZsiOP4JZOTk/+cQhDx9TUZzj1sjNmhKAgRfRgAPpA1GGauR1FkfSspDUGCIDiHmT/ai5trkWxMDQ0NPW3z5s2PLJL+HdQ63PAbmfkMRNwcx/EulUrlXGZ+TpZviHhSGIbfSLlxjwGAa3LGdGccx+d4nredmUcR8eK8FJSsVx/f9z+KiAte8ebYFQJdJkEqRNyXmS8CgOVpfuUFA0r5ijXrNBGdwcxvEQB6cZN1ycYkM99erVbPTPv47JKNVDW+79+HiIULLqcpazabq9LWDkZHR0cajcZkl8aRGU6u1Wp/6nleW/lU833LCyeXmiBdmoSBUZO8638wGWzm0diuQCDi98IwlPWnLCLmRoxc7QDAGUmVG3nCpDYiuhMAMsPErnbiOD7UNXmxNK9YroNXuf9CoBX9k/f/kU5w8Tzv8ImJCSkdm9rq9fqhcRxnXne0/ZAxZs882SAIXsrMNzjqyxK71hjzalcdShBXpEoqFwTBScz89x24/xljzF/b+hPRZwCg3YXQGWY+3CXbwPf9zyHigmiazT+5Lt8ey5YtO7jId6ASxAXZkssQkURzJKpTtBUq9U9E8rEuH+1FmqSfv94Yk/ehv4O+NlNoNgHAy4pu1FKCFJnKEsu2dvfJZimXOshbWt8DC1bObRAQkRxVJmsjtkr+8o9+oxSKnpiYkPSQQq3IcRrM/PmhoaGz56/7uBhUgrigtBPJEJGkhrwy49TfnwLADcki4ifbuZlmYQqCwI/j+CxEfEnKwqNEvG4BAFncy1zpd4Hc9/29EVHSZWTxdd28PpIlcL3neRe7LAhm2VOCuMzETipDRE/xPE92AY5PTk7KnvRFabVabV21Wh2VRMK0hMduGJVdk1u3bt270WisiOP4ty6bvFzsKkFcUFKZgUVACTKwU68Dd0FACeKCksoMLAJKkIGdeh24CwJKEBeUVGZgEVCCDOzU68BdEFhqgugBni6zpDJLhgAR/RoAnprmQLd2FMpuM1lZTW3NZnO/qampnWG34JJNohpeHARGRkb2rVQqC/bHt6xNGWNqNsvWLbdBEJzIzF/PUfQlY8wpNkN6XRHoNQJEJKk5kjqT1v7dGLOPzScrQWxbP8UAMx8VRdH3bMb0uiLQKwSSKjovTqroLNj6O8e+Uz0FF4I4VSSRg9kB4O6ktEvWI61X2KidAUagtQPzGbZyrYh4ehiGl9qgshJEFBDRzwEgszKfzYheVwT6DQFEPCgMw3+z+eVKkNwPdZsRva4I9BkC3zbGvMLFJyeCtJ4iUn7yCBelKqMI9DMCiHh0GIbXu/joTJAgCJ7HzEKSXVwUq4wi0I8IFKmIIv47E6T1FJESjlLKUZsiUEYEnCJXcwdWiCDSsXVmxXcAYG0ZEVKfBxaBc40xhUsoFSbILEmY+Z22UNrAToUOvJ8QuJOZvxBFkSxDFG5tEWTWipy62qq3ekzJqiUWBko7lA4B2S9/XdqRD0VG0hFB5hqSEpbbt29lUoJtAAAAUklEQVTfvVKp7FHEAZVVBLqFADNL/eSx8fFxKRHUldY1gnTFG1WiCPQZAkqQPpsQdae/EFCC9Nd8qDd9hoASpM8mRN3pLwSUIP01H+pNnyHw/wAO6qqbnjXCDQAAAABJRU5ErkJggg==" vertex="1" parent="1">
          <mxGeometry x="145" y="130" width="60" height="60" as="geometry" />
        </mxCell>
        <mxCell id="nt5jMm1TpiSUR0SnXHAM-3" value="" style="shape=image;verticalLabelPosition=bottom;labelBackgroundColor=default;verticalAlign=top;aspect=fixed;imageAspect=0;image=data:image/png,iVBORw0KGgoAAAANSUhEUgAAAMgAAADICAYAAACtWK6eAAAAAXNSR0IArs4c6QAAIABJREFUeF7tfQm4HEW1f52auVlYooC+AIKyCgrhZqpqbi7EoJFNQQH/AiIquD6fqIigouj/yaKCuIL7rqigcUPQCAhGIAaS6erJTYzKQwIK+pBFJUC2O9Pn3+f++95vMpmZrqrunpl7b9f35bvoVJ2t+3Rt5/wOsLzlFsgt0NYCkNsmt0BugfYWyB0kfztyC3SwQO4g+euRWyB3kPwdyC3gZoF8BnGzWz5qmlggd5Bp8qBzNd0skDuIm93yUdPEArmDTJMHnavpZoHcQdzslo+aJhbIHWSaPOhcTTcL5A7iZrd81DSxQO4ghg966dKlM/fYY4/Z9Xp9NiLOHhgYmB0Ewdh/A0ANADbV6/XNnPNNhUJh08yZMzcddNBBm+g3QxaTstuyZct22nnnnecWCoW5QRA8WSwWHxocHHx4UirTQujcQSKjrFy5crdisagYY89GxL0BYG/6b8bY+N+ZLg8dAP7JGLsXEe+lv/SvXq/fWywW/yyE+LsLzW6P8TzvYAB4FSLuDgBzGWNj/+i/EXGnFvIEjLGH6B8AjP1FxIfq9fpNQ0NDt3db/iT8pq2DeJ43DwAkAAwFQXAkABySxJAuYwHgX4yx34T8f4OId5bL5aoLnSzGaK0PQ8SXMsZOB4D5KfL4OyL+ABFvKJfLv02Rbiakpo2DrFq1anfO+XGc82MR8QjG2D6ZWDQZUZpR6Au7MgiCFeVyeVUycnajq9VqOXTU4xDxeMbY4XajnXrTjHp9yOsmKeVNThQyHjSlHWRkZGTfWq12LGPsOMYY/d0xY3umTf52+tJGX9u70yY+Tk9rfRwAvA0RT8qKRxxdAKgg4peklN+K69vN36ekg/i+fwoinsUYoy8h76ZBM+R1A+f8+mKxeMO8efP+kQafSqXyIs752xhjp6VBLyUay8lRlFLXpEQvEZkp4yDr1q2bsXnz5tczxsgxaAk1VdvjiHi1UuocVwW11sPRjHGmK42sxwHALdGM8tOseXWiP+kdhPYWxWLxrGjGeF4vjdll3n+WUh5ow3PNmjW7jI6Ofpwx9habcT3u+0tEvFQptbIXckxaB1mxYsWuM2fOpOXB2YyxPXthvF7zDE/efiSEMFoeaa1leDT7JcZYuddyO/D/V3ji9y4hxHcdxiYaMukcZMWKFbNnzZpFG0pyjP0TaT8FBgPAmXEvjud5pwLA1xhjT5vMKgPAR4QQ/7ebOkwqB/E872xaOzPGDu2mkfqZV9ws4vv+BYh4eT/rYCnbEinlqyzHOHefFA6itV7EGLuYMbbYWdMpOhARH1RK0W3/dk1r/RXG2H9ONdUBYLUQotQNvfreQTzP+wAAXMIYK3bDIJONRzsH0Vr/mjF2dEJ9NjLGdkhIo+VwRNwMALMS0N4opcz8XqtvHcT3fYWI5BgU7tCr9lR4OnYf53w9/Q0PBB5GxKcYY/T/T/wtFAoD9CIBwI5BEOzIOd8h+rsnItKN/fi/JC9ESxu0WmJprT/BGHuPq9EA4BqKR2OM0cydZbuBMfYCxtguLkwQ8fdKqXkuY03H9KWDaK3PDS/4yDl2NlUkhX73A8AKRFxRLBa98D7lvrSjUulIulAo7IOIQ/Tycc4XhWf9FPjn3IIguLhcLl80TsD3/Vci4o8dCd6MiFcBwPNDh7/CkYbNMLL566MbfDp0sQ4IBYAvCyFoX5pJ6zsH0VpfHUa8vi4Tbbclej9j7LcAsDwMRbkzPC79Qxd4bseCjl8BYCEiLgSAYxDR5mv6dynls8aJRns1l2jZ34dRuZ9USn3H9/3DEfE3jLHUZ7s29v22lPINFBwZHdm/1fY5AMDZQgg6wk699Y2DrFmzZr/R0dGfMcbIUJk0APhtvV6/jRyjHyNJfd9/JiK+LIxLOoH+xn1REXF4/AKtUqkcxDmnaODZNsYjmxSLxTcddthh62mc7/u/RsSkexcbEajvG6SU36b/0Fq/mzH2aVsCAHCKEOIntuPi+veFg2it6WWg9WgW7RFE/C7n/GohxEgWDLKg6fv+c4IgOAEAyDYLw5dmTsSHZr4fSynfO873jjvu2GWHHXb4ue2eARF/ppT6P+N0KpXKRZzzD2ehTwzN+znni0ulEunGKpXK6Zzz7zHGCpayHCmlvMNyTMfuPXcQrTU96NTXuwDwhyAIxh1jUiQmdXpStBSr1+sPDw0NPdDcT2tNe45XOrwY9DJ9TEp5o+d5e4TOSHuvNKMS/s0Ye7qJXON7iZGRkUNHR0ffSxegJuOa+tw9Ojp69PDw8IMOY1sO6amDZPTFuhsArgyC4OtKqdG0DNWvdLTWrwiXpYkC+ij4kVKGGWOm639aypncQ1Cux4mGttvMGPsOY+y1SdISor3UxOxqyLttt545iNaapvKJ05fEigD8K9zgXrlx48arFi1aRJl606J5nnczbe6TKgsAiIim7wMdosTGRdEJG+f8IMpKTCqf6XgA2BoEweFKKd90TKd+pgZJg9cEjbRnDgqLJucol8uZJRWlaoCUiPm+fzoiXpsSOVMyvwiC4FOc82VxA8hBCoXCEkSkg5FnxPVP6/coHYDSHhK3rjtIms5BIQf0EJRS1yW2xCQkoLWmF+/IbopeKBRePDo6iqYOQnc0vu+fQx+wbspJF8y0t0rKs6sOEl0Afiap0NH4z3LOLy6VSrQRnHZNa03JYd1OT6Wl681BEDzOOY+N8QqC4IZCofAXRCTQB0pi62Z2541SysRRGF1zEM/zXgAAaRzBrUXE/56us8b4l8DzvJWEyDLtvgwWCgPAWUIIunh2bl1xEN/3n4+I65yljAYi4s8HBgbeMTg4mNoxXlKZejFea00nPbGbZJINAOjyLAjtf2ovZE2TZ5jq8A9E/BVjjGZPk7YyXGYNm3Rs1ydzB1m7du3c0dFRQud4bhJBw2Sfz0gpz0tIY0oM11rTxtzkZKgOAMNCCC/a+1GM26RMmgqDJ78xMDDw0cHBwfu01nQpanR8TJheSS6IM3UQz/MoyvU6ACB0EeeWVElnxn048J577pnz+OOPPwgAsYGcnPPPlEqliY+K1ppy9slJYvcPfaT6ryI9KHx/rFUqlYWcc4qhi21h1PV7lVKfjO3YpkOmDqK1pg05PRDntmXLlh2OOOIIusTK2/+PVXpDCIn6zThj0HKEZo/x8I3G/r7vH4WIFL0g4uj08He613o3BVC2kkFrTeAT74uTLwQJvFkpRbhoTi0zB/E872QAoOBD5xbmUT9rsuDXOitpOTCMeqVbc7o979gQ8XOdoIF83/86Ir4pjk4Pf/+XlHLXdvxHRkYOqtVqfzKQL5gzZ84uBx544AaDvtt1ycRBqtXq0xFxWXS85yIXC4JgXrlc/r3T4Ck6KML+eiKMn5oRpyIta4UQtKFt2bTWf42AueNI9ex3ihAQQtzSQYffmWCgAcCrhRA/cFEkEwdJurSq1+svTAsFvFKpHM05pzyLEgDsS0ZCxCc45/cGQbAya1jPuIdChxhbtmwZJLxgANgr+jcTEf+NiH9SSn1gnIbFzXlHzCzP8xYAwF1xsvXB75+QUrZdRmmtP8IY+2CcnADwXSGES/AjS91Bki6tOOcnl0olOqVI1KKjUDKuSUrmTwDg0iSnHbbCrlu3bqdNmzZdCAATDtBMg3I1hBATQBWe5/2I8h7ieFFWoFLqXe36WUQzLAcAAmyT4YeEcLViDwZiZNO0jUJE2h/FwveEmZdLlVIntKNp4eiPSSmdQl1SdRA6tYq+TE6bv7CWxjlCiM/FvQCdfqdlyKZNm74FAGfY0uGcn1sqlTIPiYhmAnLejhGxzQ4SRu5SPktsQhkAlOlot8PShHItXmNgnw9JKT863m/16tXPDW/HyVnohjo26zNMvCIHo/saLaUk55hoWusnDaJ275dSjs36HXT5S1THpaM6AwMDux522GHWQaypOojv++ch4qcMDL9dl7hNpQnNZcuWPX3OnDm/NFmXtqMHAJcJIS404efSxyaKucUMQgVp4nLY/yilpJzyTi8VLa8WxMkfpiMfLYS4tblfBHptFKzYmC/f5CBU2iEW5bFYLO40ODhIABktm9b684yxt8fpwhh7foin9UeDftt0Sc1B7rrrrrkDAwNkeOu6GwBwqxAicZqn7/sEOpA49DuEpHm/UoqOEVNtEcLhElOiLWYQjBtL0QZKqZM79fM87zEAaHtCND623RF7Sg5CcWSxN+Kc86FSqVTp4CB0jRAb3xcEwWKXNOvUHMR0w9RC0aeKxeJRg4ODicCJPc+7PEz6uSDuBTL9vV6vv2hoaIiiZVNpETZu22VPKyaNDkKb+a1bt1I5s7y5WeB0KeUPbYem4iDRDS3NHuN508ZyhKc15yqlEq37V69efUi9Xk/7SPg2KeWLjBWJ6eiCctjoIBHqx6TJqU/LbmnRicCvr7Kll4qD+L7/xfBkwhqbCACuFUJYb6ablbRYh1rZp90a3IoIY4w2t/V63TqZq9FBPM87FgD6skyZrT161J9y72OPhJtlS+wgq1evflatVvujSWxQI3MA+FuhUFhEwWdJDaa1popL/5GUTovxX5RSmmwAO7L2PO98ALCOB2p0EN/3X0eZchnoOC1IhlWLvyGEeLOtsokdRGtNLxCdJNi2D0opP2Y7qLl/VK12TVI6rcYj4lqlVOyxahxv3/cpqsB6udY0g7wnhDYlSNG8OVgAEX+plCIIJauWhoNQKMBRVlwZuzuM61+glHrcctx23bXWhOuUOmAYMQov8bYIIRIjDIaXln92qWWSO0jSt2Ob8b8I72JebksxkYNUKpUhzrn16RMivkspZb1haqWc7/tvpFwBW8VN+8edw5vQ0VoTpI0L7uzETbpNkpSJTNOtTxjC83UhhHXpuUQO4vv+xxCxbahEm2WLv379+qHTTjutnsZDyjo3e9ddd52977770gvu3LTWjzLGdrMl0DiDRDFlEzkRtrSme3/X6lSJHERrTTeTB9sYPwwUPF8pZY292o5HpVI5nnNOt+dZtMellEbIgJ2Yh8tA2iOZxIRtQ6bJQQ7lnK/NQsnpQDMIgneWy2XrvbKzg0RJN21DkdvMHo/Ri6KU+t+0Hgph2CLiGKZrBm25lDJxjQzf968NI3NNUmTbOojnec8AgEcy0HFakAyC4NRyuWxdFsLZQTzPuwwA3m9p3c9LKd9pOSa2u9aavqxZ1C28WEqZGP3RtWZHi1ATglLtWGkrLgKWjKm1JnQZKlzTsW3YsGH24sWLt1tephFq4vv+dxAxNgSdc75vq6zIccFNsZ0RcZFSyihNt9Eozg6itTYKNmtkxjlfWCqVVsQ9GNvfozJtiY+Mm/ki4vOUUiZZax1FjtDX6abfChi62UF8338AEfeKsc8jUsqOd0K+71+NiCbRuC31T8lBTI6+t0opOx5ueJ73fcPI7QOllHSaaNWcHMRxWXOTlPIlVtIZdh4ZGdmxXq9TmbQ0Lwu/KaVMLSXVIgdjQusWMwgF7ak4s8QF5nmed4lJPgYAnCqEmFiWpBXuvm7dul03b95My+24tlZK2fEeSmtNIeyx+8RZs2btfMghh1CIvVVzchCtNaFiUAVV49ZcKsx4oGHHNE+zKKFn5syZg/PmzaMb+lRaVF6Apvj9TAm2cBDKlXmHwfiOEQAWwA+/pRVZ2glTjLGthnqMVZ9qp6/neYsBgKphxbU/hYGKhOhi3VwdhC7mJgqvmHBNK66pE6+kxSvHacflc5vo26qP6dKkQY5tMgqr1erCIAhM1tFUNOhZ7co/2Mrhqm8K4yYqT7Wi5fv+ZZSaEMcHAD4uhIjt14qOk4N4nrd+PL87Trjo9w1Syq4AliXNh8+qlNe4nSgql6BoDBKf6CZ/GwchGqZgC3F6hKsAKiq0h+Hz60m30dHRQ4aHh9vWjvR9v2oIDOJcecraQZYtWzZrzpw5VjhVJicraT6BKD6MkmgIuM6ohXUBK3RWPl7zz2iQY6fly5fvPHv2bArxb7t8INJtHITwrEwKxHxXStn2lEhrTXdRVA+wX1vHdFuLfPSHpZRxWZhtbWDtINVqdX4QBFRhyLgh4nuUUk6puMZMmjp6nvdszvn54R0JZa11ylNZGwTBV10ukVxlGx8XZRjSS3p4y+m99Qzy4rAW4XZpsK3GNxb5bPydAjxDAIZPpVF4J6kNOox/hHP++lKptLRVH6015boTRnFc+5qU0hlJ0tpBfN9/dYize02cVI2/x52q2NBy6UuXmkEQEAT/npxzwpR6AhEpzJ7AjTOJBLaRk2aUmTNnSs75GOwPbWIR8Z+c80dKpdJ2UQJa6/9hjB0YxwMAqHDpRCEZRORa6wuizMuuLHnjZIz7HRG/XCgUPt54F+L7/omUWhw3ln5HxNcopaze10a6Lg5yCSLGQrY0Mtm0adOcF7zgBQR4lrcULGCzz0LEFyulllUqlZM455SS3HK2SkGszEgAwIOI+PEQumcsVMQ0fQARa4R4kiRyw9pBTLGZxq2FiP+jlKI6dXlLyQKVSuWlIZhBy6VHMwtE/DHn/I4eVHhKSdttyPwiTK2gKAAjQA0AuF4IcVISQawdxPd9QiM0LtxCNfSUUonTapMoORXHmmL0TkHdCdnF6L2t1+tHDw0NGe3X2tnJiFHjYNsjXrqxFUIQRGTeUrRAtVo9JgiCm1MkaUKKgkxvty3BFlYsOAEROwLAmTC36eOa/9HMw9pBtNaEkm0DQfnuMGT8szbK5X3H7jsIwZ1OrA7knFOdvweaPzQWhXTSMunDhCEcJqjtbVrEMwiC74SFP2+PDh/SkiOODkFJDQ8ODiZGurFyEJc7kCAI3lwulzPL+Iuz1GT7XWtN4SR0NL1TC9k3AsCJ42iHvu8fGZVY7qaa3wuC4BumDsI539/wODZNHZwQTFoJYOUgIyMje9VqtQcsNXlVCIVpjCZoSXvKdPc8j0AZzmeM7R6nVL1eHxoaGhpDG9RaGyEUxtG0/J3CjKhOScdGQAnhBWxb8Om48S6/0/H9wMAAzR4Pu4xPtMRyuSTMKq4pDeX7gUa0lLqMMWZz0vfYo48++pzjjjvuqdWrVw/V63VrXIBG3elFZowR7q9p9DKlAJhkkm5kjO1gYudwj/IdgoJijBEq/Y4mY1r1SQOIsJGu1QxiESw3wYNzfmypVMpzqZueZoRlTF9hqh9u3QioQik1hvNkWo6smQldRiLi+2gJHEUb3xnWXn+OtTDJB1Cm5BGUrzEyMnJorVajwEIT9PlmzqnURnd2EJdyzpzz15ZKpe8nt+HUoaC1fisifsIWbG+bBwewWggxUT5Ba03l7jqCVrewIBXIPKNUKv2bfqtUKm8Kb/O/3gNLnxcGs04AULtkYIbZiZQPdEy5XF6fpvxWM8iqVat2LxQKVvnkaYM0pKl8L2h5nncN5/x0RLSyfQtZ/y2l3KXx/9daUy36jqUPWtBZEwTB+eVyeQxfgOSjkmVdtM0vpZQTgG6mIezN8sWVa3PVx+ohLV26dObcuXOtIHAoREAp5RSL76pUP46jJdWMGTNuRcRDUpLvTinlNsuzSqWyH+ecMIA75q234X9FNKs9k6KIU87ObKfylrCW5QspgjoucDPGZm+VUn41JbtuQ8bKQaL1rklloEYm35JSvjEL4ScLzTSWVC10/aSUcruwd9/3j0ZEpz0fIt7NOSdHoY11okpfhs/mQ1FG4LsR8VTDMdt0y/oD7OIgttVRt5lCXYwwmccQ8n14QvRfKSypGs3QsUSyS0p0k42vB4Cn0dc9K9sDwIqwlBudvjnnpADAj4QQp2UlI9F1cRCjOnkNQseWBMtSwV7SDg81lrh+GWPkPjwEwOhYpVZrTS9eUoA+42NaSzsTfBEt1W0iMppZLAlLqr3Kkq91d2sHMQ01bpRk1qxZMw855BBK1J82TWtNQXIUKpJaA4AnR0dHT1qwYIEJUAEbGRlZUKvVJkO5ZysbpYntHMfY2kGiUAgTZI0J3nFVV+OEnGy/m1ajtdTrztHR0ZcMDw9TLJxxGxkZ2bdWq1FQ4wHGg/q740ullDd2S0QXB3lrGA7xZRsBp1M8lud5D6QZmBdlPn4oSVZchBv2tXAT3s3jW5tXxKQvlcw4Qynlm3ROq4+1g7jcpscVtk9LmV7TCcEi6EbYqWB9C9np8u4LUsoPpaWX1pqiqimUY7K1G0dHR98yPDz8YLcFt3YQz/OeBgBjN6+mrRU6h+nYydIvzT0HAPxcCGF7K25kKt/330ZreMvYLyPaGXSi+uhX3nvvvRefdtppPdnDWjsIGcEUm6nRYJs3b567cOHCVCIsM3gQiUh6nncpAKTxpScYzQuklF9LJFDMYMIKnjVr1rsKhcI5YSruNrfxWfK1oU0JT4VC4co0cjps+Db3dXIQ3/eXhmfYL7VhPFX3IVrr4xhjiTeNYRzR75RSsYjrNjaP61upVA6i8sgAYF2hOI626++UR16r1a5qTJXVWlMoCkH3NJZQuyi6B2kLLOcqQ+M4JwfRWpuCl03wci2imIaSWdLwPG9DkqBDxtiWCBrzw1nK2Yl2uDykGii07Hplr2SgS0MCliiXy9c2yhBX3oCcWwhhdWhko6Org5BBb7dhRH1rtdp+CxYsSFz22ZZvVv09z7sbAJ6bgP6mIAhOKZfLRgglCfgYDdVaS4qIJRxlh8KsRjwaOyFiFQB+HQTBLeVyebvwGFNA8iyB0Z0chJTUWtOJwrNsrBLmH5yjlOpGjI+NWE59tdY/ZIw5hzkAwFNBELycMKucBMh4UJSvcjwiHs8YOy7hLNko7W8AgJboS8ObcCrh17LR0XStVqOc8n0MVKWbecLfTf1S1NlBPM/7ZJQiaiD/RJdUSprZMMyib6VSoXqBdB5vjP3bJAcFfB6TxQPNQl+iGSHCzyXQbUQc+xsEwe4RCDdh39L/9yQiPhRlJ479rdfrVEKCshUf2m233W43LYhqOns06HuDlPLEtPVP4iCmtRm2kRkRX6aUyqroZtr2aUlPa01fqgWOzGjPcqQQgmLa8tbGAlrrXzHGrAouIeLblVIUHJpac3YQksAUI7ZR2nDNfo0QwiWdMjWlkxCqVqtnBUHwbUca9XDdfdJk/0A46m41TGtNG2+K2rBpfwuC4Mg0swqTOgilSZ5rowH1RcTDlFKTsqRxWJ3pL4T3aqtz1P+zUkrn8G5HnpNymEvJOlIUAL4hhBjL1U+jJXIQG4zYplnkciHEB9JQoJs0HPdd4yLeIaU8spvyTmZenuftzzlfjYit8ME6qtZcWzGJHRI5SLTMsl4rAgBB+x85f/58yqGeNM0BVXJct/8NU0KtKty2M0qE+vFCOl5GRMqnIDC59Zzz5fPnz6fKw11p1WqV0n2PCJETCVJ0NmNsA2UkMsaWpVEZmJTwPO9L4eb+v2wVCqGmVgkhXPeI27BL7CCVSuUUzvmPbJWYbKDWWmuC3n+7rZ50/VMoFI6dP39+ouNcz/OOjerSL24nAyL6AHBFWLCSjqAzab7vn0kFkRhjVISnXbsJAC4TQtyWRIgIRYegiDoVQGrJIi0Qh8QOEs0ilMDT9sG1MxIAnCWEuDqJEbs1VmtNx5UuZaa/J6WMrUneSQ+t9UfDojoXmuoa1lL/ulLqLab9TftZVHUaI4mI/62UutSUfqt+rnuR8Cj6S0qps5PwprFpOQidSn3PVhiqHVKr1Y4cHh5OrdyyrQwm/T3POxsAvmDSt6nP38PAQ6vL1GYeLglqEY2fSilTCx3RWtNtv1X8XSTHJ6SU73Ow3diQu+66a86MGTMof90WDeahjRs3Pn/RokUUAOrcUnGQaBZZ4VK9CACuEkL0dY6C53m/DwPjbB8QmeV1UkrrD8f40/R9/7xwn5GktuNnpJTnOb8d0UCt9VeiYEEnUmHd+bcppZzjpXzffxPNirbMCUpVCPFN23GN/VNzEFclImG2QdZLolDaY7XWw4wxcn4rWxH0jlLqWFd5qtXqPkEQJI5bA4AXCiGs4+bG5a5Wq8cHQZDoYpdu2Gkzr5R61NUe4XOgiGmKnLZpv5BSNkYA24wd62v10OOoa62pPJZTyHYQBK8ul8s/iOPR7d89z7sRAKweDABsEULMSiKr1voTjDHaDCdqAPBjIYQT5lS0MnB5MVvJfJGU8mJXZbTWhCj/E4fxg0kKtabqIAm/NqP1ev3ZQ0NDFMPTNy2sCks14a1e9vAE5XdCCKcPxbjiWmuaPUwC9WJtFSIm7qiUIggfqxYFLKbyPBBxrVLqMCsBmjr7vr8qTJso29BIGumbqoNEXxzX41Aantp9gY0R2/X1ff+NhKLuQCvR3uOuu+7aa2BgwLYOSycxKdKVZner5nneCQBAhTNTaaOjo0+zRWVpZKy1pqiNCZBrQ6F+E+p+lGHf7bql7iDRw6WH4fr1S6SQqyFajfN9/8fhl8/2JOhRKeUzk8jhed4CAEgtdDsIgjOaE5FM5EsBobGZzfM7hbjHyTQyMvIf9Xp9DUUTx/Vt+L0GAHsKIQhQw7ql7iDRLELpkXTy4dp+Fq4bac3Z0+b7/n2IaOvoie89KpXKQroZT0v5IAjOLJfL37WlV61Wzw6CwOV4uyWrNGLwqtXqp8MiorbxbM5VzjJxkMhJaEOV5CXvOei11poScWyQ0jEIgueVy2UKuXBunucdDABtk4lsCQdBcIJL1mKlUjmdc75NCqwt78b+W7Zs2euII46gKlLOzff9wxGRThWNGyJ+WSnllHefmYOsWrWKKqH+yvH+YFz5nkW/uhw4hAAI/xJC7Gr85Dp01FrTpppinBI3ANhHCEFRyFYtivtKK+r6YSmlzdKopaxLliwpHHDAAVRt19jOYfDiOiHEoVbKR50zcxCi7/v+UYhIwYyumXcs6SmEi1GiGdC6OGaaQXJa6x+nBKKgpZTK1Q6+7xOiYZK8+3HW35ZSvsFVjsZxvu//GhEpb964RSek1gcfmToISZ8gTGNCeQC4RQhxjLE1UughajW5AAAP1ElEQVSotf4zY4xKGBs3uvVWSiW+u4g+Li+lvG1j5m06JkX9iKrv0p1M0uZ0ktaKqUtNRkR8vVLqO7ZKZO4g0dc4DcjLzcVi8TlplfeNM5TW+ok2tcrbDi0UCmL+/PnVONqmv2utaf1/umn/5n5pYW1prSn/fqIeoq08jQVHbce2cRDCybrBhpZroZ2uOEjkJKTQRC06G+Wa+r5SShlbozsB/bGhWustjLEZFnRGpZQ2/WNJV6vVpwdB8DuHuoOUWfdPCgQdGhpKnHOzatWqMuf8dgCwujCNFNSIeLhSig48Umku8LeMsa9KKW1TeNMNNemkPUVlDgwMUEzQYFIrIeJ7lVKfTEqn03jf9yl/nFvwSGUT2swvismi/Yg0lYWcAxFPSBM1xfM8SmdYaukky2fMmHHKvHnzUo/W9n2fdDSGTXWtRtW1GYQebnSJuDqsf7eb6cNu1w8RL1RKXZaUTrvxWmu0oU2h+0qpg2zGmPZdtmxZcc6cObRMjU3YAoBrqWqtUsqqGrGJLJGzUnRx7PE9In5aKXW+CV2XPlrrP1kCcN8ipbTex3bVQaKly/NCwLW08FRVGK2pXQzcaYzneXsAwN8t6a6QUi60HGPVPQSrI9u9BgAWN8UkrSGkS0T8IVWMtSLq0NnzPIozI9C8RU3H+HT7T8lzdFlKhxyZNa01rUYI4dO0OZ3mdd1BSJu0QikQ8XNKqXNMLWTaLwpxp1RPm5ZqgpIN4+nY1+EYfL2U0upUkuzaEwchxtVqdX4QBElPfP4spTww7RekWq2eGgTBEku6V0oprSGQLHnk3SMLeJ73RUtU+o6VgdsZtmcOQgKtXbt2761btxL+qnVSPo0PsX7/GWL9Jt7PNBunUqmcyzm3ihql+KByuUz7hLx1wQIuuephPor1+249IG3dPc97RhRS7QLTsjIs6EgZf6m2SqVyJufc6lIpxKj9khAiMUhAqopMYWKe530KAGzSiZ2irHvuINGeZAc6fQmjU2zBh1MLX2h8l0LsXcKEpRAZ4wYAvxJCEBJ63rpgAa31VxljNsgtf5RSPt9WtL5wkHGhHY5WM7kPcdwfrZFSJr7jsX2A07W/1prSs19lob8TsmXfOIjnefMAgI4rjVsQBMeXy2WrL70J8XXr1u2+efNm23uEvsqGNNFzMvfxff+XUe0SUzWcThn7xkG01tbYWkEQ7O+C5E0hHFQzPEQipCVdI8Q+3X2sD+8a7mGM2UaebpRS7mj6tPJ+ySygtab7L2FBpb9DTeIU8TzvcgC4IK5fw+8bpJRPs+g/1lVr/YrwAIzqAaa6HAIAFELYhKbYip73jyxwzz33zNywYcNmS4N8TEr5QcsxvbsHaRbUAbnvTiklASgbtfvuu2/WY489dgUAvNNogEOnYrE4r9dlix3EnnRDompXtljHb5BSWtd16Zsllud5D4S1sfcyfVpUR1sIYXSKEQFs/3cM4LIp67b9EPFcpdSViQnlBDpawPf99yOiVRwe53yoVCpVbE3bNw5ie4IVwu0boTEmQGW3tSX1v1VKaZXp5sJkuo/RWv/c9kqgWCzuNDg4+JSt7frCQSKYe6u8hbC4ysmlUokM1bJVKpWTOOcfc8mlsDXieH9EfEIp5RQV4MpzOo7zPI9qotjk698vpaQ6JtatLxzEJfapE4SMa+EVa+u1HnB4mnkYKck0ZchorV2yCZcqpU5wMUJfOIjneZcCwIdMFaCEoEKh8OzmKTMMgX5xWMODqpxmkpdhIh/n/IpSqWRzGmdCNu8TWcDzvKscDlqcSzD0hYP4vn8dVX+1eAu2uxXVWhPAWT/EQv1VSvkcC13yrhYW0FpTwp3tEf1RYX1IylOxbn3hIJ7nrQcAmzXiRAxWpVIZ4px/P0zSOcBa++wGnCiltAIVyE6UqUPZ930XpJeHpJR7uFqhLxzE9gRrvLSXC/yLq6FsxqVditiG91TuGx7mLEFEq1IOSRFVeu4gLidYjLHXhsleVGvCOkOsSy/Qo4golVJ/7RK/Kc9Ga03ptS6FgF4eAuc5I9T33EE8zzsVAGyz97J4IR4GAHqxn22Lh9VGmC9IKd+RhaDTkabWmkqpWcXHIeJ9Sqn9ktir5w7ikhmWROFWY0Oc16uUUhN1ElesWLHrrFmz9o6chRyGXvSDHfi+NEzoogpNeUtgAdfZAwA+J4RIhFnQcwfxPO9HAHBKAvs5DwWA+xljZwghOgI0JJjllkkp6eg5bwks4BCnN8YtCIIF5XJ5VQLWvQ9WdMA3SqLvxNgQAO1yIcQHTIn5vv97h1LElDdPGFWfNuWT99vWAr7vv5NmeFu7IOLVSqmzbMc19+/5DGJ7gpVU4TAL7Y/1ev2MoaEhOk83bq5LwRB54x9bt25dNDw8TDkmebOwgNb6AES8AwB2txg21rVer79oaGjoNttxfeUgjidYzjoj4oeVUpe4EPB9/5lhBhtN17YVpwgn1zjy2EW2qTpGa3011Zq31c8VZrQVn57OIAnW9rY20/V6/c22s0YzE631exljV9gyp/5BEJxaLpcJYzdvBhZwLNg5Tjm1w5GeOojrssXAvhNd0gS6HhkZ2bFer6902YswxjYi4iuUUjfbyD8d+/q+fyQi/toSXX/cVNdLKW3CljqauKcO4nIzavHCLK/X6+9MOms080tSEAgRqeb4yd3Az7WwU191Xbdu3U6bN28m53DFO0utUA8ZptcO4nQyZPBE3y2lzAzl0Pf9ZYj4IgM5tutCKPADAwMnDg4OJir06cK738d4nrcDY+waAHCdAT4jpbQBk4s1SU8dJIMTrJvr9foFac8azVZ0zIluJOPV6/WXDw0N0YySN8bYqlWrdi8UCt9jjB3laJD7AWChEMIWlb8/l1gZnGBlOmu0cJKLOOeEjuLabt2wYcPLFi9ebIvO4cqvb8etXLnyucVikU6sXOBnx/V6h5QytZru40R7NoOk8BUe0wERfx4EwUVZzxqt3q4kS62I3k8LhcI58+fPT1Q7vG/ffAPBRkZGFoyOjn4jSblwRPyiUiq2uJCBONt1mbQOQjhUiEjADZntNeIMmpKTU6WkC0PY0p/F8Ztqv1cqlRM5521xBQz1TfXUqpnnZHWQ6+r1+sW9mDWaDZhWmWQAuEwIcaHhSzHpu7mGkDQp/jeqtJVFubmeL7FIAK01fTVPtnjaGxljH+zlrNFKVtcb3xa0bg2C4MKkAXYW9uxJV9fgw2ZhXbGubJTu2QxCQq5atWp+oVAghLynGwjdN7NGGycZYYwdZqBHxy4EHQQAH8hiw5lUtjTGp+UcVEi0G8vSnjoIGbxSqRwfFat5RpsH8G/KHuy3WaONk1hVxu30wlE0aqFQ+LwLGmAaL3IWNLTW/8kY+0pS2oh4qVKKkDIzbz13kMhJCHjhMwBwGCLu1KD1V+v1+pf6Ya9h+iS01vcyxhJlsTXx+naUV73cVIZ+7ae1XsEYOzyJfGGF39uEEE6XtC58+8JBGgWn+5FarTZjYGDg/lKpRLPHpGtaawqVSBWCFBGvpahgV/iaXhtxZGRkr1qt9kBSOVzqDCbh2XcOkkSZfhqbYZzZTyLUlNQLB2VpP5cCSU3yOJVxTqpT7iBJLdhhvOd53weAMzJicSMi3gYAv50MUKcUZwUA1uDRke1ukVIek5EdO5LNHSRjq2utP0oXgRmz+RM5CgDcOH/+/BsAIMiYnxN5rfV9DglnTpWhnARsMSh3kLQs2YGO1prqmFCc0EAX2G1GxFsB4PogCCit+NGdd975kYMPPvgJW95LliwpHHDAAYcCwKH1ep1qSNJ/j5WZQ8T7OedftDll01oTwstxpnIAwIgQYr5p/yz65Q6ShVVb0KxWq8cEQUBOcmCXWG7DJrxb2YKIj5LDNP4LguBRzvmOdHoYvfx0irgjFTNCxNiyyRQLxxi7RCnlx+nlADyNUsqelrXLHSTuqab4e6VS2Y9zTpWRTkuRbD+QeoJzfkmpVPpkJ2G01hRQ+HkbgYvF4tzBwcGHbcak2Td3kDStaUgrym0nRykYDpks3W4sFosfHBwcbDmbVKvVk4IguM5GGQA4Rghxi82YNPvmDpKmNS1oeZ63mAIUE+ZAWHDsTlcA2Bo6/qVCiI80c/R9XyGiVZ3AXuOK5Q7SnfemJZfly5fvPHPmzPM557SJ37OHomTBelkQBG8rl8sTqcWUNcg5vy8E7ZtlwXCi1IXFmNS65g6SmindCXmetwcivnWKOgpFX1OtyLHmUADHD2utSHfrJhuZO0gy+6U6usFR3sgY2ztV4r0ldueWLVtOPeKII/7med51lqAMNSllN47HW1ood5Devjgtua9bt27XzZs3n4mIZwJAqQ9FdBIJEd8FAM9ljFmlxyLinlkmRXVSJncQp0fdvUFa69cwxs5kjB3bPa6ZcqIiOEfacOjlSVbuIDZPqod9oxOgYwHgWER8YQ9F6Tprzvm5pVLpyq4z7jVwXC8Ungo8I8ikcWeh/AqTjMxJq3rSOoNJFM9nkCTW64OxS5YsmbH//vsv4JwvCIJgGAAWIOJefSBamiJUpJRDaRI0pZU7iKmlJlG/NWvW7FKr1fZHRCpyuj8AUIYj/W+KsdqB/lK8VYhUT1Cf9P89GQTBU/SXMUYh6U8i4sOc8/VU54/+1Wq1++bOnbv+scceex8AUAHVbrYtUkqbu5PUZMsdJDVTTh9ClUrloEKh8ANE7FqkbbFY3HtwcPDBbls5d5BuW3wK8fN9//2ISOEy3WgvkVLe1A1GjTxyB+m2xacYv2g2uRoRM90jAMD5Qoiu13rMHWSKvbC9Usf3/fMQ8VNZ8QeAbwoh3pQV/XZ0cwfptsWnML/Vq1cfUqvVvkJlCDJQc2VYc961qI6zOLmDOJsuH9jOAp7nnQMAaV/sPSWlbMRM68oDyB2kK2aefkwiWFnaMyxOS3sA2EcI8Ze06JnQyR3ExEp5H2cLpLk34ZwvLJVKhM7YtZY7SNdMPX0ZRXFklGFojGjSylqc8+eWSqV7umnJ3EG6ae1pzsvzvAvCbMLLXc3AOd+l23C0uYO4Pq18nJMFVq5ceXixWLzIIXz/J1LKU5yYJhiUO0gC4+VD3S2gtf4gY2w7YIcOFFOtf24qee4gppbK+6VuAa31IkS8OCxpEHfSdYGU8orUBTAgmDuIgZHyLtlaoFKpXFQoFF6NiJSO29juBYDzhBDXZytBe+q5g/TK8jnfbSxwzz33zHziiSeOCytr7RfGXVEZujWc8z8MDg66IsKnYuHcQVIxY05kqlogd5Cp+mRzvVKxQO4gqZgxJzJVLZA7yFR9srleqVggd5BUzJgTmaoWyB1kqj7ZXK9ULJA7SCpmzIlMVQvkDjJVn2yuVyoWyB0kFTPmRKaqBXIHmapPNtcrFQvkDpKKGXMiU9UCuYNM1Seb65WKBf4fA4/319InfykAAAAASUVORK5CYII=;" vertex="1" parent="1">
          <mxGeometry x="280" y="230" width="50" height="50" as="geometry" />
        </mxCell>
        <mxCell id="nt5jMm1TpiSUR0SnXHAM-5" value="" style="shape=image;verticalLabelPosition=bottom;labelBackgroundColor=default;verticalAlign=top;aspect=fixed;imageAspect=0;image=data:image/png,iVBORw0KGgoAAAANSUhEUgAAAMgAAADICAYAAACtWK6eAAAAAXNSR0IArs4c6QAAIABJREFUeF7tfXucXEWV/zm3E4dAiICigIqAG3kEmcyt6hiyWQVR8bGoKA/BFR8o+mNhUV6+fq6A/vCFggg+WPW36q6CsMAqsiwSQAlDoKtqZnCDIKIsAQLiC8KHSZz0PXvPbg87mbmPurd7evqmT/1bp8459a36dtetOnUKQYogIAikIoCCjSAgCKQjIASR2SEIZCAgBJHpIQgIQWQOCALlEJB/kHK4Sas+QaBjBFm9evX2Cxcu3HViYmK3PsFOutmDCMyfP//hJ598cv3KlSs3dMK9tghirVUAcCgiHklESzvhkOgQBDqBACKOEtHlURT9W71eHymrsxRBnHODRHQiAJxQ1rC0EwS6hMCTQRCcOzQ09Oky9goTpNFoHBQEweUA8OwyBqWNIDBHCKxSSr2yqO1CBHHO7UdEa4saEXlBoBcQIKINWutFRXzxJkiLHHcAwHZFDIisINBLCCDizWEYHuzrkzdBrLX/BgCv8VUscoJAryKAiN8Iw/C9Pv55EcQ5dxwRfdtHocgIAlVAoNlsvnLZsmWr8nz1Ioi1dhgADsxShojfA4BVzWbz13lGpV4QmC0EarXaXgBwCBEdmzNffxiG4Rvz/MglCB8ALliw4IksRUR0lNaad7akCAI9gYAx5khE/EGGMxsXLVq0w+LFizdlEimvN61t3ZvS5KIoOrter5+Vp0fqBYFuI9BoNM4KguATGXP34Hq9fnNbBHHOHUNEvHxKLER0gNb6593uvNgTBPIQMMa8BBHvTJNDxGPDMPx+WwQxxpyGiOelKLlfKbVnnqNSLwjMFQLW2t8AwB5J9onodK31F9oiSNbfVNE95bkCSez2LwLOuZuI6KAkBHw+D3I/0oUg/Tu5toaeC0G2hlGUPswaAkKQWYNWFG8NCAhBtoZRlD7MGgJCkFmDVhRvDQgIQbaGUSzZB2PM7oi4W61W+8PSpUt/WVJNbrNGo7FXrVZ7bnxB7uEwDP8zt0EJgZtuummbRYsW7UlEHI7+gNZ6fQk1M5oIQTqBYoV0WGv/FgAOB4C/BIBtprluEPHap5566rx272S37LwFAJJCw28EgCuVUhe3A10rjOlUADgMAPj69tTyJwDgU+7vK6WyQkYyXRCCtDNCFWprjFnJYdrxhNnbw+3fI+L7wzC8wkN2C5GRkZEVURR9y9POr4joaK21K2qnFSH+RQB4lkfbVRMTE29bvnz5ox6yW4gIQYoiVkF5Y8zHEfGcEq6fqZT6vG8759zZRPT3vvItufEoio6o1+vX+rYzxlyNiLmRtNP0PUxEh2it7/a1w3JCkCJoVVDWWns0AFxa1nUiepvWOjWWblKvc+5kIrqwpJ1NRFT3iclzzv1zXih6hg8PtGL/Hvf1Uwjii1QF5Ywxz0ZEjiVa2Ib747VabfHSpUsfStPBH+FBENzXhg1ueo9Sap8sHR4h6Lku8L2jMAzflivYEhCC+CJVQTljzGcQ8UMdcP1ipdRJaXrifAM/iJNxHNmuHUQ8LgzD76bpsdbyDtjuHbCzJAzDu3z0VIogxphTEPF4AHiJT+d6RIYvi90SBMEHh4aG7u2mT9baBwHgeR2w+aRSavskPcaYZyIi7xh1otymlFqRpCjvXlFB4xcopT7o06YyBDHGfBgRSyXv8gGiCzJ/IqLFWuvfdcEWjI6OvrjZbN6TZQsRLySiG4hof0Q8LWtHCBFfF4YhJ97YouQtexDxD/HZBO82jRHRwYjI27KpZd68ec8dHBz87XQB59x5cdod9jGt3EtEF8U/oOsAgLeXs5ZRv1ZKvchnHCpDEGvteMK+vU8fe0YGET8ZhmHRXZ5S/ltrDwWA69IaT//4bjQaewdBkLrDQ0Qf0Vp/Zro+a+3HAOBTGU7up5T6xWR9HqGI6BVa6xk3UK21/xpvKr0hyQ4RPbhx48b9pp7d5BFqm2222X7JkiVP5oFbCYLkDV5eJ3uo/nqlFE/cWS95u1dEtJ3W+qmpjlhrLQCESc4h4lfDMOR0sVsUay3/O6QtV+5SSi1JaEMZxH2n1npGBhzn3Goi4sPNGQURvx2G4Tun9WV5nPf5tjQ7iOj1HVIJggwPD+80MDDw+1mfVbNsgIi+r7XOzJbRKReMMa9HxGsy9B2olFozbVLxTlVadv3zlFJnJEx2zieQdm/7qfHx8V2m/rKPjY09f/PmzbwMSiycyDzpgNJay/+GaT8uTim1xUm6tZajBa7MsLOHT9hLJQjCnbTW3goAiR9wnZpUs62nm9lbrLUH8Lo/Y4LcWqvV3jy53o93iN4V7xDxCXhaOVkpddH0SmPMexDxHzL+Eb6ptX7PZL219msA8L4M+eVa69sTiMi+sY+JhYhO0Vo/fQ6Tl2pKKZV72Y8NVYYgo6OjS5rN5g0AsMtsT+TZ0F8kG1+n7FtrOWAvCy/+ruNtVc4FlZmYOS25xh133PGCWq32QI7P6+MlzeVE9HIAGMyQ3aCUSsx965N8sJX3+cbWKXvWdvDPlFLsS26pDEG4J63gtNch4mIimpfbu94QeDwIgtVDQ0ONbrtjrf0cAMxYFpXwI3PXx1rLQYFeEy7H9qVKqWOSZO68884dJyYmeAm4oIT/05t8UCl1gY+eShHEp0Mi878ItL7d+Ne9rYThfPYUhmHq8qsVCHlLm9gTIu6fdYBnrT0fAD7Qpp3HiGiP6RsUaTqFIG2i3evNrbX8SNHX2/DzdqUU7whlFmPMN1qHuHmiafVfUUpxKH5qaRGe81SVPvzMO62fblwIUnY4K9TOOfclIvq7Ei6vbzab4bJlyx7xadvGUusWpdTLfGyMjIzUoyj6aZmlFh+MhmF4io+dSRkhSBG0KizbOtD7JAB47d4AwA1xoOM7wjB82LfbfKtv++23v7RAKDqfh3xl06ZNZ6xYsYI3DLxK621L3vb1faWMdX80DMMLETHyMtISEoIUQavissaYlwLAN/mQLK0rfCqNiKcrpS4r211jzLGIyPdIsl4s5i3o45VSfDhZuHCkchxZwcGY784h/VWI+EGfM48kJ4QghYem+g0ajcYQIh4S3xPZJ95+fj4A8IfrL4Mg+GkYhj/rVA9bAYa8u/UX8T/Fc4hoXRAEHEW7KgzD1DOaIvadcztHUfQqROSHYfeKickbEr9BxJ/XarVrBgcHOWCzdBGClIZOGvYDAkKQfhhl6WNpBIQgpaGThv2AgBCkH0ZZ+lgaASFIaeikYT8gIATph1GWPpZGQAhSGjpp2A8IZBGkIy9MGWNORMS0FJN/Ukrt2A9ASx+riYC19o8AsEOS9x15o9A59wYi4vvEiaWbl4iqOUTi9VwhYK19c5xB51/S7McxYe2/cjsyMrI4iqLMzOG+t7vmCiix258IOOceISLOSp9YgiDYcWhoKDPlkVfgm7WW07jsnAPz++JwgavCMHysP4dDet0rCLSCIfn+C19bTiyIOBqG4VCez14Ecc5dTUReyYb55ds8o1IvCMwWAhzP5ZO9kQM6wzDMfAKaffQiCEeRIiIHwT1jtjomegWBLiKwSimVeYd/0hcvgrBw1nPQXeyYmBIE2kIAETfFOQZeuXTp0tU+irwJwsqccz8motf5KBYZQaAXEfDZuZrqdyGCcENr7f8HgC2y4PUiEOKTIDANgfsR8fW+WeELL7GmGpPllky+iiFwCSJ+qSg5vD/Sk8BobaWdQETHIGJiav2KgSju9gAC7e6CEtFBrW7czccORPQvZa8Ft0WQSSw5Gdy222771/xKaRRFuwVBsGtZnKd0boYKXjuW1Svteg+BIAhmZID/7wmJeHMYhqXGmh8gbTabj27YsOHRgw8+ODfzuw8qhb9BfJSWkcl7YEVO68ug2rttrLWJGeLbIchs9FYIMhuois5cBIQguRBtKSD/IAUBq7i4EKTgAApBCgJWcXEhSMEBFIIUBKzi4kKQggMoBCkIWMXFswjSbDY5d2/hEj9kuiEIgoebzeb6er3ekaDZjnykj42NPWfz5s3LOFUlb/UW7lmrQRAEaU+BlVUp7foXgfsBgC/6XaSU+lVZGNoiCKfm5+N7Ikp8vbSsU9JOEOgUAkT0SBAE54Zh+OUyOksRpPWcFqfj3+LhxTIOSBtBoEsIXKaUemtRW4UJInFYRSEW+V5BgIiu1Vq/vog/hQiS94h8EcMiKwjMBQJRFJ1dr9f56Wuv4k0QIYcXniJUDQQOU0plvUH/dC+8CDI2NrbdxMTEGn6ksRr9Fy8FgUwEfqSU8tpY8iKItfajAPD/ckD/Od+niqLoP2VwBIG5QiAIghe2No9ekuUDIq4Iw/C2PD+9COKc+w8iSn32ix+Zjy+jHJVnTOoFgW4h4Jz7AREdmWYPET8dhiH/8GeWXIIYY3ZFxKyHIL+rlDouz5DUCwLdRsBa+x0AeHuK3duUUivyfPIhyKsR8d8zmOj1V5XniNQLAp1GwDl3IBENp+i9Xym1Z57NXIJYazlBAydqSCq/V0r5PuWb54vUCwIdR8Ba+zsAeFaC4j8rpQbyDOYSxBjzEUQ8N0lRr93+yuus1PcfAlnPH/jcUs0lSNbJuRCk/yZc1XosBKnaiIm/XUVACNJVuMVY1RAQglRtxMTfriIgBOkq3GKsaggIQao2YuJvVxEQgnQV7rk3dscdd+wSBMHRiHgIAOwHAC8CgIcQ8d44M+XNrbCfu9r11Fq7L4dqIOLLAWAxALwAAH4NAKx7FRFdprVe3wE7hwPAoYg41Hr8ZiERPYCId3F/giDgMKasSI5MF4Qg7Y5QhdobYz6MiB8HgG2z3EbEb/z5z38+bfny5U8U7d6dd9654+bNmz9HRO/JaTtOROdorT9T1AbLW2v/CgC+DgD75tnhc7gwDD9Vxo4QpAxqFWvTaDT2DoLgMgAYLOD63UEQvHZoaIiTF3gVYwyHFX0bAHbxavA/QteNj48ftXLlyg2+bXKeFk9Ug4g/GRgYePOSJUsK5dwVgviOSkXleElVq9VGCk7ayd6ujzOcD/o8rNqKW+J0O/NLQLX6vvvuO+ioo45q5rU1xrwDEf8xTy6l/mec2BoRI9/2QhBfpCoqZ629FQByo04zurdaKcXLmdSyZs2aRfPnz78XAJ5TFqb4CYwvhGF4elZ7ay2/OjtW1ga3I6JPaK3P8dUhBPFFqoJy8T2cI+J7OJe36zoiHhOG4aVpeqy1nwOAM9q004yiaEm9Xr8nTU+HnvDjb5/dtdYchJhbKkUQYwzf8novIvLuy7zc3vWGwOMAcKtSiidRV4u1lpc8L2vXaLwbtVZrnXpd2lrLfVzUrh2O+lZKvTtJjzFmH0T8RQdssIqPKaUSA2in668MQay1hwHADzsE0FyoGVNKLe2WYd5NmpiY+EOOvQtiAt1IRPsHQXA6Ee2UJh9F0Uvq9fp/TK9vNBqvCoLg+gw7fwQAfk98jIh4/X9qhuzjSqkdkuqdc/+XiD6Z1paIfgMAFyDiOiJ6EyJmXcIzSqm6z1hUhiDGmHXx9uPzfTrVwzInx/dfLuqGf8YYnow3Zth6u1Lqnybr836hiehErfVXE35hP0REqVu18bnKkqlv+3lkt9FJT57F3x9XxiTjM48ZJd5SfnDjxo37Td0Js9Z+HgBSv2l8QtXZUCUIMjIyskcURfwLUfVytVIqcZA73TFr7dEAkPrdMDEx8czp5xzWWk6ckbaUOl8pNePX3xjzhYx/hXuUUvtM7du999478MQTT2xM62/a94619mfxAWPaZsGMa9vOuZfF/1hZSawX++TcrQRBnHMvJCLv/fhOT7YO6vNOF9OuTefcW+Kl0xVpeprN5q7Lli17ZGp9TCpe428xoafUX6yUOmm6PmvtZwHgzBQ765RSu0+tGx4eXjAwMPBUBkGOC8Pwuwn/VDdlvEHJD20eMbWNc+4QIrohzU4URftkbQhMtqsEQdhZa+1DnP293Ykzl+2J6Ayt9Xnd8IEfpIyiiLd4E8t0X0ZGRupRFN2RIf9RrfWnEwjyAQA4P2MirqzX60/74Zw7Of7WuTDDziu01jMe6DTGfI//XVLaPRWfjewx9bzGWssk+5sMO9tprVOJWjmCjIyMvDGKoqu7Mblmw0beTlCnbfLrwQsWLMgLFfkSx0UBAJ8vnAYAO2b48Vql1HXT6xuNxl8GQbA6ox3vcPH3AJ9fcPwXEyq1ENEOWmtus0Vxzp1KRPyxn1Y4zouJyj+knEIqK9H0XUqp1DRUUw1U5h+EnXbO6SiKjkdEDn6Tbd4cVllrOT1moWTLaSo3bdq07YoVK8aT6q21j7ZzSDhF541KKSbRjDI2Nrbn5s2bmQRtF9+cVq05l7q08/nQlzvpbQ/X7CnIW4f7WubgxTAM35smn5WYw9cGyxHR4Vrr1FWCtfYqAHhTEZ0JshP8AxuGoVcGz0r9g7QJTF82t9b+BABe2UbnNyLiPlkTau3atQs3btzIYewc0l625Ia0xNkO9+OlalkDLRJ+Vmv9YV8dQhBfpCoqNzw8vNPAwABv35bd4HirUoojgTOLMSZExDUlgxUfaTabQ9N31ZIMWmvfBQDfyvMnpf42Inq51nrCt70QxBepCssZY/hS1LWI+OKC3Xi/UorvXHiV1uEkL5G8w07iU+9RInqrz5brpBNlwt3jhNQ/2rRp0ztXrFiRF12wRV+FIF5DX32hVugJbzEnxjpN6+F1RHSS1vq+oj0fGRlZHEXR1wDgFTlteYv17LIxai0yXgIAf5Fjh896PuDzL5ikRwhSdAZUXL4V8Hk4IvKpNE+uPQCAr6QyGW5DxGvjOxOlnlGeCo1zjr97XhNfiFpORJzDlpd4bIOvwq6KougynyVVHtytiGW+qDXYunK7HQBw1AUvK68hoit9zjvS7AhB8kZA6vsaASFIXw+/dD4PASFIHkJS39cICEH6evil83kICEHyEJL6vkZACNLXwy+dz0NACJKHkNT3NQIZBJn9F6YA4DGlVOlUMX09ctL5riBgrf0tAOycYKwrbxSy3QOVUhzDI0UQ6CkErLXL+fA0xanuvHIbR5rmRnH2FGriTN8gYK29BQBWJnWYiD7ik1c49z7I8PDw8wYGBh7MQfU8pVS7icf6ZuCko7OPQF5WFCJSWmuX50kuQViBtfZXrTT7WfpsfOf4nmazySkspQgCc4JArVZbTER7x9G/KsOB65VSh/o46EUQY8yFiHiyj0KREQR6HQFOSpeUeSXJby+CrF27dpeNGzfyei4vNLnXsRH/BIFVSinvG5peBGFMnXPHxWHP/HaEFEGgkggQ0QattfdlMO6kN0FYuNFonBUEwScqiY443dcIIOLN/LZIURAKEYSVe+RmLeqDyAsCs43AJUqp95UxUpggU0jyoZydgjL+SBtBoFMIcAI6vl/PTzLYskpLEWTSmLX2hFYWvMRkYWWdknb9iwAvhZrNZqkrw4i4IQiCh5vN5vp6vX5zJ1BsiyCTDhhjdkVE3nfeLYqizPQ08TcMZTh+VlqdTxa8TgAiOrqDgLU2cR6U/VaYLa87QpBOONdoNA4KgmBG0uNJ3UKQTqDcOzqEIAXHQghSELCKiwtBCg6gEKQgYBUXF4IUHEAhSEHAKi4uBCk4gEKQgoBVXFwIUnAA8wgSRVHhU9CCLoh4FxFI25DhXayybnAoCQCsj6Jo/TOe8YwrBgcHZ7zqW1R327tYY2Nj201MTPBTwit5izcIgl2LOjEpn/GGXVmV0q6PESCi2/kJa6315WVhKE0Qay2fe0weFCa+jV3WKWknCHQYAT5N90n6PcNsKYLkPB3c4b6JOkGgIwjcHWeI37eopsIEycozVNS4yAsCXUagcBaeQgSx1n4OAOTueZdHVcx1DgFEvDwMQ35F16t4E0TugnjhKULVQOB9Sil+vCe3eBGk0WjsXavV+H24rHe42dj9iHh/rlUREARmCQHPnVCrlNI+LngRxBjzFUT8PxkKHyCiE7XWP/YxKjKCwGwhsHbt2p3Gx8dP4LfUc2wcFpOE36HPLL4EWRe/tf38FE33KaUkmUMe0lLfdQTSTutbjnjdMswlyOjo6IubzeY9Gb3zYmLX0RGDfY+Ac+4NRPSvKUA4pVRW7qz/bpZLEGvtX/MTvClGnlBKPbPvR0IA6FkErLWPpzxr7bXl60MQPi1PfGu7125/9ewoiWNzhoC8DzJn0IvhKiAgBKnCKImPc4aAEGTOoBfDVUBACFKFURIf5wwBIcicQS+Gq4CAEKQKoyQ+zhkCQpA5g37uDDvnBgHgkCiK9mtFOPwOAO5tbbuXykqY1Bvn3MuiKHo5Ii4GgOcCwINEdFetVls1NDQ02gkEbr/99mfNnz//VfGB3hAR7YWICwGAQ5fuCoKAE06PtWNHCNIOehVr27rF+U0AYIKklYcQ8fQwDC8t2z1r7dFEdF5GeBGr5ol7fNm8t8PDwzsNDAxwvNR7ACBI85WI1rIdrTVfny1chCCFIateg+Hh4QUDAwOfB4ATfaIfWj28ARHfEYbhw749ds7t1noDxveBGU4fevGmTZvOXLFixbivnUajMRQEwXUAUOQJ8a8Q0Rla66d87bCcEKQIWhWVtdbeCgArSrj/ACLqMAwfy2s7Ojr6vGazaQBglzzZhPqfKqUO8mlnjHkpInKK2QU+8tNkblBKvapIOyFIEbQqKGut5TAfDvcpW7ye6bbWNgDA645EkiNE9EWt9WlZTjrndiYiXpqVznwT6z8rztN8ti8YQhBfpCoo55zbr7UGb8v7+PXhY7K+SVrPWCTG2xUw3IyiaEm9Xk+N/LbWXgQAf1tAZ5LoOBHtrrXmjYncUimCcA6tzZs3H4qIPPDzcnvXGwKPI+ItYRjy8qOrxRhzOSIe0QGjY0qppWl6rLV8C/SFHbDzD0qpxH+71r/HbztgAxDxw2EYftZHV2UIYq3llCs/AYDn+XSsB2UuVkqd1E2/rLVPAsB2GTbHiGgVIu4PAK/O8m3evHkvGBwcfHC6TOuD2eX0iz/42RZntwwzZB9RSiUun5xz7yeir+bYuQoR10VRdBgi7pkmWySKvEoEGQaAA7s5wTptCxHfGIbhDzutN0mfc+5AImLM0sr5SqlTJyudc0cQUWoGwdaO1nemKzPGnIKIF2TYeWucT+qyKXbOJaKPZMjvp5T6xfR6ay1vOx+d0u6pKIpeWq/Xn04Vaq29FgBem2bH972YShBkZGRkhyiK/tiNiTWbNuKDrO9ord8xmzYmdRtj3oSIV6XZmpiY2GX58uWPTq03xvw645f3XKXUx6brc85lTfgHlFJbLL3WrFmzaP78+XwJKbEEQfCmoaGhGbf4rLWrAOAVSY2I6Aqt9ZFT66y1hwIAbwUnlrR/xIT+3ZSWyMGHZLkXprLS/fj+1XFWlCAI7u7GxJpNG4j4kzAMM5cynbLPh3UAkHrYNz4+vmjlypWcrPnpEt/+5O+ktGukX1dKvT9hAp0XJ31O231KzEaYc9f7XUqpf0z4B7kFAFamEGTGD09rO3hNGp61Wm3/pUuX8iFiZqnEPwj3wFrLB0nb5HWox+s/r5Q6sxs+5mW7R8QjwzC8YtKX1iEfv+yaVhK3R6213J/UD14ieqHW+oFJpTlXsFnsNUqpf08gCPv6lhTnHlJKbZEUxDl3DhF9PK0z8+fP3+mAAw7IXZVUiSD89/6pbkyuWbKxodlsvnjZsmWPzJL+LdTmTXgi4g/uU4nosSAIBuITdj4beGmab4h4bBiG30+YuIcDwJUZfeInlD8WRdGmWq327CiKzs8KQUlb+lhreexnLPEm7fIyKz5Z59NyqtVq+xDRFwBg2xS/UjcDEv4he3+JNeVXjgf0vfHSYZ9uTLIO2XgCAPgk+7Skj88O2UhUY629CwAKJ1xOUkZEOyedHaxevXr7BQsWcB87UVK3kxuNxrIgCErFUyU4lrqdXGmCdGIE+klHvNb/RNzf1KexC2BxvVKKP3rTiJi5Y1TAzqlxlpvzM+zwv1HWNrGXKSJa7hu8WJklllfPRWgLBFq7f7z+374daBBxRRiGt2VM3OUAkFrvaXudUmr3LFnn3GuJiMnYTrlKKfVmXwVCEF+kKipnjDk2vo/xz2XdJ6Iva63/Lq+9tfbLAFD2IHSiRcLcaANjzFcRccZuWp5/rfpHms3mUJHvQCGIJ7JVFjPGfBwRzynah6Kp/q21/LHOH+1FCoefv10plfWhv4W+kiE064MgeF3Ri1pCkCJDWWFZvt1HRHxZyicP8u8R8dQwDGecnOdB4Jx7N1+WAoC8TP6s6rpms3nCsmXL1uXpnV5vreVvK/7Gyi1E9LWNGzeeOf3cJ7eh3AfxgWjrkmmFhrwRAGa8+ouId/AaPz5E/GKZyTSJlDHmmYjIDyW9JuHgkXe8bgSA7yilUk/6fVBvNBp7BUHA4TJ8+MrXep8u8WsCj0ZRdM28efPO9zkQTLMn/yA+I7GVyjjnOAxkN0T83dDQ0L2z1c2RkZHFRPTsWq22LingsRN2+dbktttuu9fExMR2tVrtNz6XvHzsCkF8UBKZvkVACNK3Qy8d90FACOKDksj0LQJCkL4deum4DwJCEB+URKZvERCC9O3QS8d9EJhTgsQnqPKAp88oicycIWCt/RUAvCjJgY7cKDTGnBbnS+WT1cRCRPtqrSt/W3DORlAMzxoCxph9EHHG/fiWwQ1KqUV5xnOv3DrnjiGi76UpQsRvhWF4fJ4hqRcEuo2Ac+6bRPTuJLtE9Eut9d55PuUSJO/qJxsgokO11tfnGZN6QaBbCBhjXo2IM67+Ttr3zaeQS5ACGUkuIaJRIkr7S+sWNmKnjxFAxH0RkZPk5aVrPUkpdXEeVLkEYQXOuREiSs3Ml2dE6gWBHkRgML54dWeeX74EOa0VAp2nT+oFgSog8COl1Bt8HPUiCCuy1t7Arxr5KBUZQaDHEThMKXWNj4/eBBkdHV0ZRdENRMQpZqQIAlVFwDsjCnfQmyAs7LOjVVXUxO+tHwHfnaupSBQiSOuDnZ+DYXWEAAAArklEQVQu+DEA7LH1Qyo93FoQiKLo7Hq9XjiFUmGCTCHJKR5baVsLvtKP6iLAubguUUpdUqYLpQgyaYhfXUXEt8TPanEmjCplSyyDlbSpFgL81sjVZRJXtLXESsOIU1guXLhw14mJid2qhaN4u7UgEATBBiJ6WGu9vlN9ausfpFNOiB5BoFcREIL06siIXz2BgBCkJ4ZBnOhVBIQgvToy4ldPICAE6YlhECd6FYH/Aortsbm/ly+EAAAAAElFTkSuQmCC;" vertex="1" parent="1">
          <mxGeometry x="150" y="220" width="50" height="50" as="geometry" />
        </mxCell>
        <mxCell id="nt5jMm1TpiSUR0SnXHAM-4" value="" style="shape=image;verticalLabelPosition=bottom;labelBackgroundColor=default;verticalAlign=top;aspect=fixed;imageAspect=0;image=data:image/png,iVBORw0KGgoAAAANSUhEUgAAAMgAAADICAYAAACtWK6eAAAAAXNSR0IArs4c6QAAIABJREFUeF7tXQuYHFWV/k/1TMIjM12dBFBgk65OlgDugoKKUV4iIqIRhdDVk7i8RFTwifLSlYeuUXQDugurwQfIJpmuDgli1giuyFseGl3ZFQSTrg4gEgnp6gwEkkzXWWoyEyZhZrrurVs10z23vo/v08w5/zn3P/V3ve49l6APzYBmYFgGSHOjGdAMDM+AFog+OzQDIzCgBaJPD82AFog+BzQDcgzoK4gcb9prnDCgBTJOCq2HKceAFogcb9prnDCgBTJOCq2HKceAFogcb9prnDCgBTJOCq2HKceAFogcb9prnDCgBTJOCq2HKceAFogcb0q8urPmsSlCJ4M6mdBpAJ0BsA9sIsYmAm+qMzZ1Vby7lATUIMIMaIEIUxbNIRCFQZgLwgfB2C8k2hNg/iFz28rCuucfC+mjzRQwoAWigMQwEMWceRYxPg7grWHsR7BZaYCvPc2t/SIijnYPwYAWSAiSopiUrPRcgM5n4NgoOEP4LiHfuC6/buMDinE13CAGtEBiOh1W7rvvHpsnbv4xgLkxheiDZeDqgut9Ps4Y4xlbCySG6t9q7bnPFrQvY+CoGOCHgrzP27LHez72zDObE4o3bsJogSgudcnqmMVI/UkxbEM4ArbUfczuWuf9vqGxNgjNgBZIaKoaG5ZmpA9nn37b2DI+i946z5j/ZK0cX4TxhawFoqjeSyxzehvwOICJiiBlYV6st9ez857o2SALoP1eZUALRMHZ0PdAvtvme8E4TAFcdAjmVevbaqd8eg22RAcb3whaIArq71iZ6wH+qAIohRD0fdutnqsQcFxCaYFELHsplzmSme+NCBOLOxEdlS9X74sFfJyAaoFELHTRyhQJbEeEicWdQU7BrRZiAR8noFogEQrt5DIngflnESDidyV6n12uroo/UGtG0AKJUFfHMm8EcEYEiNhdGfjPguudHnugFg2gBSJZ2BKQYsv8K4C9JCEGu60h4j8zG38k4qnMeAOAgwHsGR2bn7Xd2uuj44xPBC0QybovtdLvToEizagl4C6D/UvmVjY9tGsapRmdM9k3rgYwRzLFHW4G8fGnlWt3RMUZj/5aIJJVd6z0dQCdJ+kOn3FlV8W7opF/MWeeQozljexG+juBvpV3qxdFwRivvlogkpV3cuZq+Q+D/Jjt1oJbqFBHd9Y80yDcEMp4SCN+0HZrs+X9x6+nFohk7R3L/Jv08wf7J9qVTbeLhC7lzBuYcaaIzyDbZ2zXC7t6UTJEa7ppgUjUddVMTOypmy9LuAKgx223eqCob9FKn0Og74v6Ddg/5nrtVwC9sv7j1U8LRKLyxZnpGVSnNRKugctPbdc7WdS3e/rktxuGf7+o34C9nuUrx5wWiARv/Y0X7pRwBYi+aZerF4v6lvbaaxJP2tYj6jdg7zPeqbujiLOnBSLOGZZae+6TQvuzEq4gwo35sneWqG8x13EAcSqYTi91+L1t+3U9teEZKedx7KQFIln8CA/pv7FdT7izSTGbKRBxt2S6Vdv1Jkv6jms3LRDJ8pcs807JTiUvkuG/Mb92k9AzTHfWvMIgXC6Z7sO26x0h6Tuu3bRAJMtfyqb/g4k+Iem+0na9D4T1jfTMsz3IYtv1/ilsPG33KgNaIJJnQzFnXkCMhZLuYMKphbK3Ioy/Y5kcxm4Em8ts1/tqRIxx6a4FIll2x8rMAfinku59bj7jrK6KF8wIHvIoZdPnMtGiKDECX2Iu5Cs1JyrOePTXApGs+vaPhZk/ADxLEqLPLXir5TPfz37q0dTm1CP+blv3MQw6pE44NMIzx+CU/kbbUofln37+L1HyHK++WiARKu9Y5pcBfCUCRPyuzF+3K7Uvxh+oNSNogUSo6/Jp6dy2FD1CStZtREhkeNceMvzDRN+YxZJJk4JqgUQsXNHKLCLw2OweQvi2XfY+F3GI49pdCyRi+ZdZmaN88D0RYeJw7yWiw/Ll6v/GAT5eMLVAFFTascybAZyqAEodBNEiu1wN9iPRRwQGtEAikDfgumrm5M6eur8SwNEK4FRA3L3bhLY5Jz++QXpyo4okWgFDC0RRFZdMS+fa2mgluK/ZwmgelRSn3ju38nziHeZHc9BxxdYCUchsMdf5FmIj6JOlotOJVGY+8fFdukGDFHdDOWmBKKNyO1ApO/lEJv/nimFDwTX6Mh8KRBvtxIAWSAwnhDPdfCcZuDLBHaZCd0mJYbgtDakFEmN5nWx6AYgujTFEsEnhr8igy3WT6nhY1gKJh9cdqN1W5qgU+GoG3qw6FBFdmi9Xv6EaV+O9yoAWSEJnQ8QFT7tkyQ+SgU/m19ZWJ5T+uA2jBZJQ6Z2seTkIDTsphklHN2AIw5IaGy0QNTw2RFF5BdECaUi3MgMtEGVUjgykBZIQ0YrDaIEoJnQ4OH2LlRDRisNogSgmdDg4fQVJiGjFYbRAFBOqBZIQoQmF0QJJiGh9i5UQ0YrDaIEoJlRfQRIiNKEwWiAJEa2fQRIiWnEYLRDFhOorSEKEJhRGCyQhovUVJCGiFYfRAlFMqL6CJERoQmG0QBIiWl9BEiJacRgtEMWE6itIQoQmFEYLJCGi9RUkIaIVh9ECUUyovoIkRGhCYbRAEiJaX0ESIlpxGC0QxYTqK0hChCYURgskIaL1FSQhohWH0QJRTKi+giREaEJhtEASIlpfQRIiWnEYLRDFhOorSEKEJhRGCyQhovUVJCGiFYfRAlFMqL6CJERoQmG0QBIiWl9BEiJacRgtEMWE6itIQoQmFEYLJCGi9Zr0hIhWHEYLRDGh+gqSEKEJhdECSYho/QySENGKw2iBKCZ0ODh9i5UQ0YrDKBNId9bMdlW8iuL8WgZOX0HiL2Vp5qS9Upgw8dQ1G59WFU2JQJxc5iQw/4xAD7Vt7X3fKX/peV5Vgq2CowUSbyV/vF/HlN3bU3cz4Q0gep9drq5SEVGJQIpWZhGBzw0SMoAzTnO9m1Qk10oY+hYr3moWLfN0An4cRGHQ9QW3+jEVESML5JasaW4lBHty7xMkRMCyvOvlVSTXShj6ChJvNUtWpshguz/K+gmMAz9U8byoUSMLxMmaZ4Bw40AiBGxOpYxZKu8Dow5yLPhrgcRXhe6/m7qv0db7BIA9d0RhnGlXvL4rSpQjukBy5gowPrRTEkyfsCvV70VJrNV8tUDiq+gyK32OD/r+ThEIt9hl75SoUSMJpJjrOIA49dj2R49XDwL+K+96c6Im10r+WiDxVdPJmbeA8cFdIvhM9YMK5Z7gyiJ9RBOIlb6QQN8cKnqK/APmljf9WTqzFnPUAomnoKXpaYsNKg+FzuCLCm7tW1EiRxKIY5n3AXjHkAkQLrDL3jVRkmslXy2QeKrpWJnzAb52GPT7bdc7MkpkaYGUZqQPZ59+O1xwAu7Iu97xUZJrJV8tkHiqWcqlVzHTe4dDZzZmFyobH5SNLi0QJ5u+GETfGClwCnToXLf6iGxyreTXqgLpfw69nQh35cveWUnWrGR1zGKkgk8Mwx4M/lrBrf2zbF7yArHM/wbQ4ApBX7Ld6gLZ5FrJr1UFsiyXOc9nvi6olc/+27oqmx5Kqm6lnHkBMxY2iPc/tuu9STYnKYEsn5bO9aZobeOg/IDt1t7e2K71LVpVIIPfIPmMK7sq3hVJVdPJmneAcFzDeD6Os9d5dza0G8JASiClbPpcJloUJiDBPyLvbno4jG0r27SiQFbMmLT3Nr8teIPU94EumIuXd6tvS6KON1uZQ+rgP4SMtdB2vS+EtN3JTE4gllli4LQwAaPeA4aJ0Qw2rSiQUi4zj5mXDOafgTcWXC/siStdOieXuRTMoW7fCfSnvFs9SCaYsEBKB+81iV/a9iSATMiAke4BQ8YY82atKBAnZ/4IjJ0fzBlX2BXvyrgL4ljpBwAKfbUi8Al5txY8Nwsd4gLJZY5k5nuFogDH2K53j6BPS5m3mkBKB2MCv2S6APYdXKgkbrOKuc63EBtCt+1M+Fyh7H1b9KQSFkjRynySwP8uEoiBqwuu93kRn1azbTWBDKwBGqpOvXWeMf/J2pBft1XU1cmZV4BxuQgWAz8suN45Ij7bn6sEj6Jl/oCAj4i50eO2Wz1QzKe1rFtOIFnzahA+N1SViPD5fNm7Oq4KOpYZfFv7RzF8ftB2a7PFfCQEUsqa/9e3akvwMMDvOc2t/ULQrWXMW04gVvpRgIZ78L3Pdr2j4iheSe4WP0ilx3a9TtGchK4gSw/omJralnpONEjfpYr5u/lK7TwZ31bwaSWBdE+f/HbD8O8fqS5bNk+cdPr69S+qrl0xm/46EV0ig1vn+kHzKj0jfnnfFVdIIE628z0g4zaZ5AA8ZbveNEnfpndrJYGUsuZlTBjxTRWT/9ZCedNvVBeuaJlrCcjJ4Prg07rc2s0ivkICiVpkZnywUPFuFUmwVWyjcjeYB5/xzq6Kd9docVO0Mg8S+IiR4vuMs7oq3o6Vpipy7c6l32Uw/VIWS+ZLv5BAnKx5DQiflU2QCDcmPaFNNlfVfq0ikNK0yQdzyv9jI34I9K28W72okZ3I36Oef2D+nl2pfUIkpqhAfgTa5cOQSDRgg+16e4m5tIZ1qwjEyZqfBuE7DavCvMqu1N7X0E7AwLEyfwX4dQIuO5sybrErYstwRQWyArTL+nPBbH3mQlel5gi6Nb15qwikZGVuZ/AJjQqi+oPhSN9dGuUy8Hdi/Dpf8YZe4DcMiKhAws2eHDFjKtludaA9S9ixNb1dKwikv3vIX8IUgxh/zFe8fwhjG8bGsTLXA/zRMLbD2jDW2hVvpgiGqEBWg3CYSIAhbF/sSHlTTlqDLRFxmsq9FQQyuDlbCPKftF1vegi7hibBtBa8ZG5goKOh8cgGL9iuJ4QhKpA1IMyImGTQ+k5Jz6LIeSQI0AoCKQnM4gaw0Xa9KSooLk03P8QGVqjAohfaO/LPPfdCWCxRgWwAQcWgV9qu94GwSbaCXbMLpLT//rtz+ws1AO0h67HVdr2JIW1HNCtm00uIaJ4KLO7lmYWnaiEW+22PJiYQy9wGoE1BokxEmXy5GhA+Lo5mF0i3ZX7AAIS+YXmTvQkfW43gnJE+bp01tePlrb1BC9Gdeq/JAvq+8Y6udRt/HdY/tEAWHY52c6O5NSxwIztm/nihUgu1KrERVjP8vdkF4lhm0LlQaDYsEZlRfwSL2UyBiLtV1Vj0I2togfQvlOpRlSiAX9qu926FeGMaqukFkjWFb6/b/LZ9T1234a9RClO0zJ8QcHIUjMG+sQlkxX4dU7ZNSG1QlWiAU8e2181zX1yvEnOsYjWzQBzLPBrA3aLckuH/fX7tpjWifgP2USbHDhczNoGIvAMPSwgxPpuveI2/yoYFHMN2zSyQomUuJOACUXrroEPnReiL5uTMs8H4oWjckexjE8hIPVBlB8CMXxcEv2zKxhptvyYXiNQM2qhdDUuW+QsGlN6GxyaQpdmOA1PU18ld6dEGZE91vXVKQccgWLMKZKmVOSQVvr3OzswbdKS9tjriupHhSlXaf8p+3F5XttfgQJzYBFK0zEMJ+B/l5x7zJXaldpVy3DEG6FjmVwFIt8CM8qAZhYpi1ryMGqz9GA6fqT5LdvuBomV+ioB/i5L7UL7xCUSik0SYwTHw+4LrRZ2+EibUqNo4lhkU+1MqkmCiOYVy9b9UYDXCKFnm7xiQat1J2/wp+ac3bWwUY6i/l3Lm/cxQ3pUzNoFEWAvckB9C/cC82/N4Q8MmNnAsM1g8dIaKITBTV6FSLarAGgljuWVO7wVkt/au264n9VF5ybR0ri1Ua1txBuITyPTJs9nwQ3+BFEo9oWZjQjkpNh5mFySpKAz+aMGt/UDKWcCplDU/w4QdvaQI2MJA2Okj623Xk1q7UcxmLiHirwukGtqUiI7Kl6vBvjahjtAfCoszMv9APv9vKFRBIwb/qeDWpFpDCoYaNfNSzryDOUSj5RAZyjZBCwG9k0nJMu9k4Nj+f7yPgOsZCLXFNzP+WJCc7u5YZvCse6hovmHsRXtFhxZIKZeZxsyxvW0ixpvyFU/9S4AwrCVg42TN34JwuKJQX37l9uVfFGENC1O0MosIfG7Q+K83ZVzZXucSwO8JE5eAu/Ku984wtoNtwi7pFcUdsBftHRxaIEumpTNtKZJ64AozGCL+Rr5cuzSMbTPaOJYZ7NcotFhnuHEycG3B9ZQ88Itw6VhmMLk0VG+p4EpTcD3hZy6Vb/uGGluKUwfNrTwfuvVPaIGUgBRbZq8IoYK2Fdv1LEGfpjEvWeZ6BvZWlPBy2/XmKsIKBdOdS7/ZYBJp4/NV2/UuCwU+yEjlD8lQsUXbooYWSBDMscygEdgeooMOa8/szy5UNknvJxc2zmjYOZb5MsI/4DZIMfmNiUQ/dBL4nLxbE5omItOUWrSWtC21f/7p50MtGw6whQRStMxnCdhHNKnB9gwEvX2HnjZN+LZd9obs9xol5mj7dmfNrEEIOqGrOhK/2jpW5rawzx/bTyzx7QZKlrmQh5nzRcCysHvSjERyvb2+17wnekJPuhUSSMkyn2Dg76NUmRmXFyreV/p2qQKdu/ODKz9ru7XXR8Efi77dWfNMg3CDwtyUrdYLk9PKfffdY/PEzcG09VDPHwGmzFf0kmU+w8Cr9Sc8CkZwO3mZY5nB7gD/GibfkWx2m9DWefLjG0Iv2xASiJM1VTRt+Jnteu8fGETJynyJwV8CsHvwb6IfcqISloR/KWfewIwzVcaKOpVcJBfHyswB+KciPpvZ2/2sCoLbylBHd9Y81iDs2EeQwF/LD9qdVmbB1lCB16e83T4t0DBESCC7vBcPNfAhjJ7bzOa0syqVHeQF954GG18CY2YdeH9XxZP9eiubU6x+RSv9GIGUbv/A4HzBrS2LNfF+cMcyg678oWfVMnBvwfWCNSShj77Xu4Z/E4i3MhkLdp1KU7LM3zDw5tCAwxjarid0zgsZO7n0d8H08ahJYhztOBXD88d2+pm/bldqX1RQixEhBFv9bE9Ncjen4RJZPn3q63uN3mDbP6mpK4Nw/2C73htFOBMSSDFrfoYGTT0QCTTYlsEXFdzat2T9m8lP5gQLMz4i/nm+XDspjK2szRWAcaBlPkSCv9y9QHa+wiUMTi59PJiE9xccYtw32YLfZoQEssxKn+CDbpclfJDfzbbrhdolV0GsUYVwLPNaAOerTyL+FxpSP4iMX9kV710qx+tY6S8AFPkHVWbnKyGBKJxuUqVU76z8mhekNuNRSX7cWI5lPgTgrXHEMYjmnBbTtPcf79cxZbcJqeCblNjXf8IFdtm7RuV4RV8xDxfbJz6+q1y7QyQ3IYEEwKo+FjLh7ELZU/nqU2TcidgWp085iIz6o3EFY9D1Bbf6sTjwnax5+Stfya4QxZZ5vTtSDJVzs0S/gQR5iQtEzaveIHbi0yVEix3V3rHMYAVhsJIwruOZFya0HfgRgff6YRIpWel3M0h4P8k4BOtk0xeBKPqKU8Jf7LK3f5jxD7YRF4hlLgYwXzTQEPZbeoFZKh/mFOSkFMKxzN8DEHprIpwA0Ty7XFXWWO2mffbZc8IeW6oUvsXojpTJ4Dfn19ZWC49hBIeiZd5DQPQNQSX3K5ERiLJfRSY6v1Cu/odKQscKVjGXeT8xr4w7n2CbAfhGPv/kRiW3crKijuPqITFBcni6JV+LCwukZKXnMkjJByom/nkh5leVcZ+gw+EXc+YNpPjr+XCxVIhk+/NS768AkloFGMfVQ/Y5aCieiLmQl9i4SVggK2ZM2nub36auGyL7J9qVTSpeHY+WFl4Td/HMyfu31/v28Qs9dylq8n0iSfGn82trvxLFcqzM+QAHr6PlDslf55GCBevh68DDqpYI+AxLZoaGsECCQSmactLPT+vtOBV6Hz+503Ekr20Afc52q9eFgS7NSB/u+8a5warBMPZD/jIDv8fu7UfnHw2/50aYWE4ucxWYlWwCysCfC653QJi4u9pICUTqA9II2Rmgo09zq/fKDGAs+jiWGfSxFZqLpHIcwf6AdebbJnDbol2bRy+19twnZUyYyT5OjyKMgXzjmBPW/3r84Vdm705SxMsPbNeT2r5NTiCKGzi00vbQjpX5MMD/qaiwKmCeB/AMgzYTOAdA3S7DjBvsine2iiQHYxQt898J+KQqXAJOz7ueVE2kBBIkHmYzeZEBxvGQJxJfhe32buTGPQC1dIeWPq4IvyOj90TVsyGWzEgfnvLpYVK0YU6QapT2ttICcbLpi0H0DRUnVh/fjBX5ineqKrzRwHGy5tUgtNyKyCG43OIzTuyqeHep5rmUNZcz4RSFuJE+SEsLpDSjcyb7RvCmZoKqwTTzd5GilT6B1EzkVEVnbDhx1amYy5xHzKFeMIQeXMQPqdICCRJ0sumlIOoKnWxDQ362nfxjTin3PNHQdIwZOJYZ/JoeM8bSUp6Oz7iyq+IJz9FqlMiKXMcB29i4W/Y7zDD4a2h37w35RyG9dWA0geTSp4Lp5kaDF/n7K2velxRc78MiPqNtW8plLmGOp1XmaI9tcPy4xBHEKFrmYlIzhenVlImussvVS6JwGEkg2weWeZDAR0RJYldfYpyVr3hBs+cxf5Sy5htBuEfBJvdjeqxxiqOUNc9ktU0tAi63ss+zC+tqv4tCbGSBONlMF4iXRkliKN843q+rzrF/KWiwNfJbVGOPIbwXwHShXal+L46c+htCrFCwnHaX9Ohfbbd6YdScIwskSKBkmbcy8IGoyezqP5ZFsmomJvbUM7eK9IpSzU/ceMT4dZ2NC0X2FRfJKVhKS0wrVF99X+m79vTWlDH7w2s2Rt6hSolAunPpdxlMvxQhJ6ztWBWJk0svBat8QRGWkUTstjDzNcaLE76Wf07tFJKB7J0ZmXfA51uUfrjcQQ1faLu1yD20AjglAgmAVPUtaobbLcdKXwfQeTGcqkFr1z1jwBWBXMw+XxP13n2kgMXp6cPIoJ8A+DuRxELZBh8wd/NmR3lzNTiOMoH07x8SrGGOpcBj5UpStNL/QqCg0Z36g/liUNBgLvEv8UGzqOVMtMIuV1epH9iriP17XZYASE0ebJQbA2cUXC/UHiaNsJReQbZfRdJfAyi+Xk0xTKsOQ1JgE2wLlkoZCwhsh/URtHvYdr0jurNp2yCKfXs1Ah4Jposw02+3+qkV/7RuQ9BaNNbDsdIfBWgBgKnxBOLbbLf2XpXYyq4gQVK3zpra8fLW3uBZJJYuHv2KvgPwv5h3NwWzPRM5Stm0DaIFr+x5EUz2i+UgA6fk13rBPTniaFU6KOlfpsg/b255U7BfSSLH9jlqbQsAlppRGzJJnxjH5SteMJNa2aFUIEFWS6enj0sZfU2+DGVZvhaoB6BLw657kM3j32Zi4t51cwEN03FcFvc1fowf2RXvIwP/vnxaOtebomA/yEid9Bvk92XaNmlh/umnX1I2jiGAnFzmJDAHV41YtlQbFDKWXbeUCyRIWFknisaVuwkGXS+7Wf1I8MWceQpx38TDIxunEcmi0t+we6d+xLHMS3ptmv9nMF+7Z1vtxpMEGjqHGW3fXL26MV+mdVAY/ME2QQeWglsNtTWcKHYsAukTiWUG69aT2gVppc+8pEtizfFgwkr7d0722435Bmg+K54dMFxhfMZZXcPMGnAsM+ioPke0qOL2/BgBNyBVvzHq9PX+Lu1B15vgv76O/XEeBGw22D9ubmVT0KBP+RGbQPpn+wa3WlnlWQ8HGDx0Akt83rZknvti6HXzS63MISnCfPgc/OLtl1S+jRaKFbOdbyMK1pegPYmcgg9sPnC7AX4A7W235Z8IvxNTMZeZb8Cfz0xKH5Ibj1vdN4+hYsUmkCBYMZspELGynk2NydphsQXAUyA8BcZTANYxwWW/b5enQLDZlIHpYGS5//8LYCsy5cd8ppMaNRIQ3fpMUXJ9MMGbLiZ+lIAK+1hH4EodlE4RpjFoOoBpr1x5pjMQ/O+0ytghsX5qu97JIW2lzGIVSN+tVja9AEQtu3utFOvgl8nAkWGbrMX8VktuCKPspaLVUZghxC6QIAld4J1LIdOkQm0nmTCnxpi2eYrqxomqmuWNNNJEBNInEitzO4NPGNO0J5FchD5gjmUO3CImkelYjVGnunFIEuLov81MjgfHMh95pWn1PyYXccxF+oLtegujZOVYJkfxb3ZfqhtvSEociQuk75nEMoMteKc0e6FE81e14Kh0MCbwS2YwLWSyaA7Nbp+0OEZFIP0iqQIwm71gYfNXJY6BeEumpTNtBv0GhBlhc2h2Ox90dNcoNBdM7Blk1wLF0N5lTJ4DzPhsoeJ9R3Vyff1/ff9WMA5TjT3G8KptwJtOVbjnocj4Rk0gfQ/uWfMzrGBTUJEBJ2hbBdP5dkXd3h2v+ZGxOmYxjBsAmp3guJIMdb/tenFP9RlxPKMqkO0iSducwPTuJKsKxmpi41P5dRsfiDvu4pmTO9vq/sJXvoKfE3eshPGl++mqzHPUBdJ/JTmGCdfHtYhGJWGNsAhY1ottnxKZ6tIIM8zf+6/GwRuyVBj7MW0Tw0agsuMdEwLpE0kuM42BL4I5lk0pZQkS8lPQh0ko3i7G/U0QvsnAm6LgjKLvShh0VRyzs2XHNGYEMjCAYtY82SC6NKnZtLLE7eRHuBO+f9VY2Ago2GNw4h5bLmbgEpl9BpXwIQjCQNlgvipfqQV3EWPqGHMC6buaBO/6N5uXghAs31XW+1c18wT8DYSr8mXvatXYUfFKVudbmY1LQPhQVKw4/YnwnVS97apd9zGJM6YI9pgUyMAAurOdR6TIuJSBWGdsihA2YBtsWgnqXVgY432EnZx5NnycB8LhMuOMyyfo5s8Gf9cu12JpF6Uq7zEtkIFBlqZPns2GXwAQ/Le3qsHL4ATCMAz/+rAzcWVixOFTyqbPZdC5oyyUGoDFzMbiQmVj0AFnzB9NIZABFvs2EK23FUBcSPjd/3MMuqUZhbHrGRgIBWSXHOb1AAABlklEQVScneQzHoH+FAgjBV48Wh/8ZJXYVAIZPMil2c4TU6CjGXQMEd4uS8AIfs8BvMwH3b5t88Q7Tl+/Pmjq1jJHsIFnvU5zUkQnxiGWYL2GT7iTwPfS7rWfqGrklnQBmlYgg4kqZfd8Xd2YcBwxH0fAcQAsCSKfAPNqEK32Gavj2D1JIqdEXPqacKfqx4L5cELfs8rhUv1ymVexYfyszaC7567ZGGyu1PRHSwhk1yos2nffPTp3f3kKev2pbPBUg40pIExl5qkGoYeYe9gwegygp9fnFzZPbFv9kcc39DR9NRUOoJjrOABsZInQ4fvUkSKaxIQO+H4dBm0gxgY26Hnyezf0tuP5eU/0BLO0W+5oSYG0XJX0gEaNAS2QUaNeB24GBrRAmqFKOsdRY0ALZNSo14GbgQEtkGaoks5x1BjQAhk16nXgZmBAC6QZqqRzHDUGtEBGjXoduBkY0AJphirpHEeNAS2QUaNeB24GBrRAmqFKOsdRY0ALZNSo14GbgQEtkGaoks5x1BjQAhk16nXgZmDg/wEFZcZ9Vpx6kgAAAABJRU5ErkJggg==;" vertex="1" parent="1">
          <mxGeometry x="180" y="250" width="30" height="30" as="geometry" />
        </mxCell>
        <mxCell id="nt5jMm1TpiSUR0SnXHAM-6" value="" style="shape=image;verticalLabelPosition=bottom;labelBackgroundColor=default;verticalAlign=top;aspect=fixed;imageAspect=0;image=data:image/png,iVBORw0KGgoAAAANSUhEUgAAAMgAAADICAYAAACtWK6eAAAAAXNSR0IArs4c6QAAIABJREFUeF7tXQuYHFWV/k/1TMIjM12dBFBgk65OlgDugoKKUV4iIqIRhdDVk7i8RFTwifLSlYeuUXQDugurwQfIJpmuDgli1giuyFseGl3ZFQSTrg4gEgnp6gwEkkzXWWoyEyZhZrrurVs10z23vo/v08w5/zn3P/V3ve49l6APzYBmYFgGSHOjGdAMDM+AFog+OzQDIzCgBaJPD82AFog+BzQDcgzoK4gcb9prnDCgBTJOCq2HKceAFogcb9prnDCgBTJOCq2HKceAFogcb9prnDCgBTJOCq2HKceAFogcb9prnDCgBTJOCq2HKceAFogcb0q8urPmsSlCJ4M6mdBpAJ0BsA9sIsYmAm+qMzZ1Vby7lATUIMIMaIEIUxbNIRCFQZgLwgfB2C8k2hNg/iFz28rCuucfC+mjzRQwoAWigMQwEMWceRYxPg7grWHsR7BZaYCvPc2t/SIijnYPwYAWSAiSopiUrPRcgM5n4NgoOEP4LiHfuC6/buMDinE13CAGtEBiOh1W7rvvHpsnbv4xgLkxheiDZeDqgut9Ps4Y4xlbCySG6t9q7bnPFrQvY+CoGOCHgrzP27LHez72zDObE4o3bsJogSgudcnqmMVI/UkxbEM4ArbUfczuWuf9vqGxNgjNgBZIaKoaG5ZmpA9nn37b2DI+i946z5j/ZK0cX4TxhawFoqjeSyxzehvwOICJiiBlYV6st9ez857o2SALoP1eZUALRMHZ0PdAvtvme8E4TAFcdAjmVevbaqd8eg22RAcb3whaIArq71iZ6wH+qAIohRD0fdutnqsQcFxCaYFELHsplzmSme+NCBOLOxEdlS9X74sFfJyAaoFELHTRyhQJbEeEicWdQU7BrRZiAR8noFogEQrt5DIngflnESDidyV6n12uroo/UGtG0AKJUFfHMm8EcEYEiNhdGfjPguudHnugFg2gBSJZ2BKQYsv8K4C9JCEGu60h4j8zG38k4qnMeAOAgwHsGR2bn7Xd2uuj44xPBC0QybovtdLvToEizagl4C6D/UvmVjY9tGsapRmdM9k3rgYwRzLFHW4G8fGnlWt3RMUZj/5aIJJVd6z0dQCdJ+kOn3FlV8W7opF/MWeeQozljexG+juBvpV3qxdFwRivvlogkpV3cuZq+Q+D/Jjt1oJbqFBHd9Y80yDcEMp4SCN+0HZrs+X9x6+nFohk7R3L/Jv08wf7J9qVTbeLhC7lzBuYcaaIzyDbZ2zXC7t6UTJEa7ppgUjUddVMTOypmy9LuAKgx223eqCob9FKn0Og74v6Ddg/5nrtVwC9sv7j1U8LRKLyxZnpGVSnNRKugctPbdc7WdS3e/rktxuGf7+o34C9nuUrx5wWiARv/Y0X7pRwBYi+aZerF4v6lvbaaxJP2tYj6jdg7zPeqbujiLOnBSLOGZZae+6TQvuzEq4gwo35sneWqG8x13EAcSqYTi91+L1t+3U9teEZKedx7KQFIln8CA/pv7FdT7izSTGbKRBxt2S6Vdv1Jkv6jms3LRDJ8pcs807JTiUvkuG/Mb92k9AzTHfWvMIgXC6Z7sO26x0h6Tuu3bRAJMtfyqb/g4k+Iem+0na9D4T1jfTMsz3IYtv1/ilsPG33KgNaIJJnQzFnXkCMhZLuYMKphbK3Ioy/Y5kcxm4Em8ts1/tqRIxx6a4FIll2x8rMAfinku59bj7jrK6KF8wIHvIoZdPnMtGiKDECX2Iu5Cs1JyrOePTXApGs+vaPhZk/ADxLEqLPLXir5TPfz37q0dTm1CP+blv3MQw6pE44NMIzx+CU/kbbUofln37+L1HyHK++WiARKu9Y5pcBfCUCRPyuzF+3K7Uvxh+oNSNogUSo6/Jp6dy2FD1CStZtREhkeNceMvzDRN+YxZJJk4JqgUQsXNHKLCLw2OweQvi2XfY+F3GI49pdCyRi+ZdZmaN88D0RYeJw7yWiw/Ll6v/GAT5eMLVAFFTascybAZyqAEodBNEiu1wN9iPRRwQGtEAikDfgumrm5M6eur8SwNEK4FRA3L3bhLY5Jz++QXpyo4okWgFDC0RRFZdMS+fa2mgluK/ZwmgelRSn3ju38nziHeZHc9BxxdYCUchsMdf5FmIj6JOlotOJVGY+8fFdukGDFHdDOWmBKKNyO1ApO/lEJv/nimFDwTX6Mh8KRBvtxIAWSAwnhDPdfCcZuDLBHaZCd0mJYbgtDakFEmN5nWx6AYgujTFEsEnhr8igy3WT6nhY1gKJh9cdqN1W5qgU+GoG3qw6FBFdmi9Xv6EaV+O9yoAWSEJnQ8QFT7tkyQ+SgU/m19ZWJ5T+uA2jBZJQ6Z2seTkIDTsphklHN2AIw5IaGy0QNTw2RFF5BdECaUi3MgMtEGVUjgykBZIQ0YrDaIEoJnQ4OH2LlRDRisNogSgmdDg4fQVJiGjFYbRAFBOqBZIQoQmF0QJJiGh9i5UQ0YrDaIEoJlRfQRIiNKEwWiAJEa2fQRIiWnEYLRDFhOorSEKEJhRGCyQhovUVJCGiFYfRAlFMqL6CJERoQmG0QBIiWl9BEiJacRgtEMWE6itIQoQmFEYLJCGi9RUkIaIVh9ECUUyovoIkRGhCYbRAEiJaX0ESIlpxGC0QxYTqK0hChCYURgskIaL1FSQhohWH0QJRTKi+giREaEJhtEASIlpfQRIiWnEYLRDFhOorSEKEJhRGCyQhovUVJCGiFYfRAlFMqL6CJERoQmG0QBIiWl9BEiJacRgtEMWE6itIQoQmFEYLJCGi9Zr0hIhWHEYLRDGh+gqSEKEJhdECSYho/QySENGKw2iBKCZ0ODh9i5UQ0YrDKBNId9bMdlW8iuL8WgZOX0HiL2Vp5qS9Upgw8dQ1G59WFU2JQJxc5iQw/4xAD7Vt7X3fKX/peV5Vgq2CowUSbyV/vF/HlN3bU3cz4Q0gep9drq5SEVGJQIpWZhGBzw0SMoAzTnO9m1Qk10oY+hYr3moWLfN0An4cRGHQ9QW3+jEVESML5JasaW4lBHty7xMkRMCyvOvlVSTXShj6ChJvNUtWpshguz/K+gmMAz9U8byoUSMLxMmaZ4Bw40AiBGxOpYxZKu8Dow5yLPhrgcRXhe6/m7qv0db7BIA9d0RhnGlXvL4rSpQjukBy5gowPrRTEkyfsCvV70VJrNV8tUDiq+gyK32OD/r+ThEIt9hl75SoUSMJpJjrOIA49dj2R49XDwL+K+96c6Im10r+WiDxVdPJmbeA8cFdIvhM9YMK5Z7gyiJ9RBOIlb6QQN8cKnqK/APmljf9WTqzFnPUAomnoKXpaYsNKg+FzuCLCm7tW1EiRxKIY5n3AXjHkAkQLrDL3jVRkmslXy2QeKrpWJnzAb52GPT7bdc7MkpkaYGUZqQPZ59+O1xwAu7Iu97xUZJrJV8tkHiqWcqlVzHTe4dDZzZmFyobH5SNLi0QJ5u+GETfGClwCnToXLf6iGxyreTXqgLpfw69nQh35cveWUnWrGR1zGKkgk8Mwx4M/lrBrf2zbF7yArHM/wbQ4ApBX7Ld6gLZ5FrJr1UFsiyXOc9nvi6olc/+27oqmx5Kqm6lnHkBMxY2iPc/tuu9STYnKYEsn5bO9aZobeOg/IDt1t7e2K71LVpVIIPfIPmMK7sq3hVJVdPJmneAcFzDeD6Os9d5dza0G8JASiClbPpcJloUJiDBPyLvbno4jG0r27SiQFbMmLT3Nr8teIPU94EumIuXd6tvS6KON1uZQ+rgP4SMtdB2vS+EtN3JTE4gllli4LQwAaPeA4aJ0Qw2rSiQUi4zj5mXDOafgTcWXC/siStdOieXuRTMoW7fCfSnvFs9SCaYsEBKB+81iV/a9iSATMiAke4BQ8YY82atKBAnZ/4IjJ0fzBlX2BXvyrgL4ljpBwAKfbUi8Al5txY8Nwsd4gLJZY5k5nuFogDH2K53j6BPS5m3mkBKB2MCv2S6APYdXKgkbrOKuc63EBtCt+1M+Fyh7H1b9KQSFkjRynySwP8uEoiBqwuu93kRn1azbTWBDKwBGqpOvXWeMf/J2pBft1XU1cmZV4BxuQgWAz8suN45Ij7bn6sEj6Jl/oCAj4i50eO2Wz1QzKe1rFtOIFnzahA+N1SViPD5fNm7Oq4KOpYZfFv7RzF8ftB2a7PFfCQEUsqa/9e3akvwMMDvOc2t/ULQrWXMW04gVvpRgIZ78L3Pdr2j4iheSe4WP0ilx3a9TtGchK4gSw/omJralnpONEjfpYr5u/lK7TwZ31bwaSWBdE+f/HbD8O8fqS5bNk+cdPr69S+qrl0xm/46EV0ig1vn+kHzKj0jfnnfFVdIIE628z0g4zaZ5AA8ZbveNEnfpndrJYGUsuZlTBjxTRWT/9ZCedNvVBeuaJlrCcjJ4Prg07rc2s0ivkICiVpkZnywUPFuFUmwVWyjcjeYB5/xzq6Kd9docVO0Mg8S+IiR4vuMs7oq3o6Vpipy7c6l32Uw/VIWS+ZLv5BAnKx5DQiflU2QCDcmPaFNNlfVfq0ikNK0yQdzyv9jI34I9K28W72okZ3I36Oef2D+nl2pfUIkpqhAfgTa5cOQSDRgg+16e4m5tIZ1qwjEyZqfBuE7DavCvMqu1N7X0E7AwLEyfwX4dQIuO5sybrErYstwRQWyArTL+nPBbH3mQlel5gi6Nb15qwikZGVuZ/AJjQqi+oPhSN9dGuUy8Hdi/Dpf8YZe4DcMiKhAws2eHDFjKtludaA9S9ixNb1dKwikv3vIX8IUgxh/zFe8fwhjG8bGsTLXA/zRMLbD2jDW2hVvpgiGqEBWg3CYSIAhbF/sSHlTTlqDLRFxmsq9FQQyuDlbCPKftF1vegi7hibBtBa8ZG5goKOh8cgGL9iuJ4QhKpA1IMyImGTQ+k5Jz6LIeSQI0AoCKQnM4gaw0Xa9KSooLk03P8QGVqjAohfaO/LPPfdCWCxRgWwAQcWgV9qu94GwSbaCXbMLpLT//rtz+ws1AO0h67HVdr2JIW1HNCtm00uIaJ4KLO7lmYWnaiEW+22PJiYQy9wGoE1BokxEmXy5GhA+Lo5mF0i3ZX7AAIS+YXmTvQkfW43gnJE+bp01tePlrb1BC9Gdeq/JAvq+8Y6udRt/HdY/tEAWHY52c6O5NSxwIztm/nihUgu1KrERVjP8vdkF4lhm0LlQaDYsEZlRfwSL2UyBiLtV1Vj0I2togfQvlOpRlSiAX9qu926FeGMaqukFkjWFb6/b/LZ9T1234a9RClO0zJ8QcHIUjMG+sQlkxX4dU7ZNSG1QlWiAU8e2181zX1yvEnOsYjWzQBzLPBrA3aLckuH/fX7tpjWifgP2USbHDhczNoGIvAMPSwgxPpuveI2/yoYFHMN2zSyQomUuJOACUXrroEPnReiL5uTMs8H4oWjckexjE8hIPVBlB8CMXxcEv2zKxhptvyYXiNQM2qhdDUuW+QsGlN6GxyaQpdmOA1PU18ld6dEGZE91vXVKQccgWLMKZKmVOSQVvr3OzswbdKS9tjriupHhSlXaf8p+3F5XttfgQJzYBFK0zEMJ+B/l5x7zJXaldpVy3DEG6FjmVwFIt8CM8qAZhYpi1ryMGqz9GA6fqT5LdvuBomV+ioB/i5L7UL7xCUSik0SYwTHw+4LrRZ2+EibUqNo4lhkU+1MqkmCiOYVy9b9UYDXCKFnm7xiQat1J2/wp+ac3bWwUY6i/l3Lm/cxQ3pUzNoFEWAvckB9C/cC82/N4Q8MmNnAsM1g8dIaKITBTV6FSLarAGgljuWVO7wVkt/au264n9VF5ybR0ri1Ua1txBuITyPTJs9nwQ3+BFEo9oWZjQjkpNh5mFySpKAz+aMGt/UDKWcCplDU/w4QdvaQI2MJA2Okj623Xk1q7UcxmLiHirwukGtqUiI7Kl6vBvjahjtAfCoszMv9APv9vKFRBIwb/qeDWpFpDCoYaNfNSzryDOUSj5RAZyjZBCwG9k0nJMu9k4Nj+f7yPgOsZCLXFNzP+WJCc7u5YZvCse6hovmHsRXtFhxZIKZeZxsyxvW0ixpvyFU/9S4AwrCVg42TN34JwuKJQX37l9uVfFGENC1O0MosIfG7Q+K83ZVzZXucSwO8JE5eAu/Ku984wtoNtwi7pFcUdsBftHRxaIEumpTNtKZJ64AozGCL+Rr5cuzSMbTPaOJYZ7NcotFhnuHEycG3B9ZQ88Itw6VhmMLk0VG+p4EpTcD3hZy6Vb/uGGluKUwfNrTwfuvVPaIGUgBRbZq8IoYK2Fdv1LEGfpjEvWeZ6BvZWlPBy2/XmKsIKBdOdS7/ZYBJp4/NV2/UuCwU+yEjlD8lQsUXbooYWSBDMscygEdgeooMOa8/szy5UNknvJxc2zmjYOZb5MsI/4DZIMfmNiUQ/dBL4nLxbE5omItOUWrSWtC21f/7p50MtGw6whQRStMxnCdhHNKnB9gwEvX2HnjZN+LZd9obs9xol5mj7dmfNrEEIOqGrOhK/2jpW5rawzx/bTyzx7QZKlrmQh5nzRcCysHvSjERyvb2+17wnekJPuhUSSMkyn2Dg76NUmRmXFyreV/p2qQKdu/ODKz9ru7XXR8Efi77dWfNMg3CDwtyUrdYLk9PKfffdY/PEzcG09VDPHwGmzFf0kmU+w8Cr9Sc8CkZwO3mZY5nB7gD/GibfkWx2m9DWefLjG0Iv2xASiJM1VTRt+Jnteu8fGETJynyJwV8CsHvwb6IfcqISloR/KWfewIwzVcaKOpVcJBfHyswB+KciPpvZ2/2sCoLbylBHd9Y81iDs2EeQwF/LD9qdVmbB1lCB16e83T4t0DBESCC7vBcPNfAhjJ7bzOa0syqVHeQF954GG18CY2YdeH9XxZP9eiubU6x+RSv9GIGUbv/A4HzBrS2LNfF+cMcyg678oWfVMnBvwfWCNSShj77Xu4Z/E4i3MhkLdp1KU7LM3zDw5tCAwxjarid0zgsZO7n0d8H08ahJYhztOBXD88d2+pm/bldqX1RQixEhBFv9bE9Ncjen4RJZPn3q63uN3mDbP6mpK4Nw/2C73htFOBMSSDFrfoYGTT0QCTTYlsEXFdzat2T9m8lP5gQLMz4i/nm+XDspjK2szRWAcaBlPkSCv9y9QHa+wiUMTi59PJiE9xccYtw32YLfZoQEssxKn+CDbpclfJDfzbbrhdolV0GsUYVwLPNaAOerTyL+FxpSP4iMX9kV710qx+tY6S8AFPkHVWbnKyGBKJxuUqVU76z8mhekNuNRSX7cWI5lPgTgrXHEMYjmnBbTtPcf79cxZbcJqeCblNjXf8IFdtm7RuV4RV8xDxfbJz6+q1y7QyQ3IYEEwKo+FjLh7ELZU/nqU2TcidgWp085iIz6o3EFY9D1Bbf6sTjwnax5+Stfya4QxZZ5vTtSDJVzs0S/gQR5iQtEzaveIHbi0yVEix3V3rHMYAVhsJIwruOZFya0HfgRgff6YRIpWel3M0h4P8k4BOtk0xeBKPqKU8Jf7LK3f5jxD7YRF4hlLgYwXzTQEPZbeoFZKh/mFOSkFMKxzN8DEHprIpwA0Ty7XFXWWO2mffbZc8IeW6oUvsXojpTJ4Dfn19ZWC49hBIeiZd5DQPQNQSX3K5ERiLJfRSY6v1Cu/odKQscKVjGXeT8xr4w7n2CbAfhGPv/kRiW3crKijuPqITFBcni6JV+LCwukZKXnMkjJByom/nkh5leVcZ+gw+EXc+YNpPjr+XCxVIhk+/NS768AkloFGMfVQ/Y5aCieiLmQl9i4SVggK2ZM2nub36auGyL7J9qVTSpeHY+WFl4Td/HMyfu31/v28Qs9dylq8n0iSfGn82trvxLFcqzM+QAHr6PlDslf55GCBevh68DDqpYI+AxLZoaGsECCQSmactLPT+vtOBV6Hz+503Ekr20Afc52q9eFgS7NSB/u+8a5warBMPZD/jIDv8fu7UfnHw2/50aYWE4ucxWYlWwCysCfC653QJi4u9pICUTqA9II2Rmgo09zq/fKDGAs+jiWGfSxFZqLpHIcwf6AdebbJnDbol2bRy+19twnZUyYyT5OjyKMgXzjmBPW/3r84Vdm705SxMsPbNeT2r5NTiCKGzi00vbQjpX5MMD/qaiwKmCeB/AMgzYTOAdA3S7DjBvsine2iiQHYxQt898J+KQqXAJOz7ueVE2kBBIkHmYzeZEBxvGQJxJfhe32buTGPQC1dIeWPq4IvyOj90TVsyGWzEgfnvLpYVK0YU6QapT2ttICcbLpi0H0DRUnVh/fjBX5ineqKrzRwHGy5tUgtNyKyCG43OIzTuyqeHep5rmUNZcz4RSFuJE+SEsLpDSjcyb7RvCmZoKqwTTzd5GilT6B1EzkVEVnbDhx1amYy5xHzKFeMIQeXMQPqdICCRJ0sumlIOoKnWxDQ362nfxjTin3PNHQdIwZOJYZ/JoeM8bSUp6Oz7iyq+IJz9FqlMiKXMcB29i4W/Y7zDD4a2h37w35RyG9dWA0geTSp4Lp5kaDF/n7K2velxRc78MiPqNtW8plLmGOp1XmaI9tcPy4xBHEKFrmYlIzhenVlImussvVS6JwGEkg2weWeZDAR0RJYldfYpyVr3hBs+cxf5Sy5htBuEfBJvdjeqxxiqOUNc9ktU0tAi63ss+zC+tqv4tCbGSBONlMF4iXRkliKN843q+rzrF/KWiwNfJbVGOPIbwXwHShXal+L46c+htCrFCwnHaX9Ohfbbd6YdScIwskSKBkmbcy8IGoyezqP5ZFsmomJvbUM7eK9IpSzU/ceMT4dZ2NC0X2FRfJKVhKS0wrVF99X+m79vTWlDH7w2s2Rt6hSolAunPpdxlMvxQhJ6ztWBWJk0svBat8QRGWkUTstjDzNcaLE76Wf07tFJKB7J0ZmXfA51uUfrjcQQ1faLu1yD20AjglAgmAVPUtaobbLcdKXwfQeTGcqkFr1z1jwBWBXMw+XxP13n2kgMXp6cPIoJ8A+DuRxELZBh8wd/NmR3lzNTiOMoH07x8SrGGOpcBj5UpStNL/QqCg0Z36g/liUNBgLvEv8UGzqOVMtMIuV1epH9iriP17XZYASE0ebJQbA2cUXC/UHiaNsJReQbZfRdJfAyi+Xk0xTKsOQ1JgE2wLlkoZCwhsh/URtHvYdr0jurNp2yCKfXs1Ah4Jposw02+3+qkV/7RuQ9BaNNbDsdIfBWgBgKnxBOLbbLf2XpXYyq4gQVK3zpra8fLW3uBZJJYuHv2KvgPwv5h3NwWzPRM5Stm0DaIFr+x5EUz2i+UgA6fk13rBPTniaFU6KOlfpsg/b255U7BfSSLH9jlqbQsAlppRGzJJnxjH5SteMJNa2aFUIEFWS6enj0sZfU2+DGVZvhaoB6BLw657kM3j32Zi4t51cwEN03FcFvc1fowf2RXvIwP/vnxaOtebomA/yEid9Bvk92XaNmlh/umnX1I2jiGAnFzmJDAHV41YtlQbFDKWXbeUCyRIWFknisaVuwkGXS+7Wf1I8MWceQpx38TDIxunEcmi0t+we6d+xLHMS3ptmv9nMF+7Z1vtxpMEGjqHGW3fXL26MV+mdVAY/ME2QQeWglsNtTWcKHYsAukTiWUG69aT2gVppc+8pEtizfFgwkr7d0722435Bmg+K54dMFxhfMZZXcPMGnAsM+ioPke0qOL2/BgBNyBVvzHq9PX+Lu1B15vgv76O/XEeBGw22D9ubmVT0KBP+RGbQPpn+wa3WlnlWQ8HGDx0Akt83rZknvti6HXzS63MISnCfPgc/OLtl1S+jRaKFbOdbyMK1pegPYmcgg9sPnC7AX4A7W235Z8IvxNTMZeZb8Cfz0xKH5Ibj1vdN4+hYsUmkCBYMZspELGynk2NydphsQXAUyA8BcZTANYxwWW/b5enQLDZlIHpYGS5//8LYCsy5cd8ppMaNRIQ3fpMUXJ9MMGbLiZ+lIAK+1hH4EodlE4RpjFoOoBpr1x5pjMQ/O+0ytghsX5qu97JIW2lzGIVSN+tVja9AEQtu3utFOvgl8nAkWGbrMX8VktuCKPspaLVUZghxC6QIAld4J1LIdOkQm0nmTCnxpi2eYrqxomqmuWNNNJEBNInEitzO4NPGNO0J5FchD5gjmUO3CImkelYjVGnunFIEuLov81MjgfHMh95pWn1PyYXccxF+oLtegujZOVYJkfxb3ZfqhtvSEociQuk75nEMoMteKc0e6FE81e14Kh0MCbwS2YwLWSyaA7Nbp+0OEZFIP0iqQIwm71gYfNXJY6BeEumpTNtBv0GhBlhc2h2Ox90dNcoNBdM7Blk1wLF0N5lTJ4DzPhsoeJ9R3Vyff1/ff9WMA5TjT3G8KptwJtOVbjnocj4Rk0gfQ/uWfMzrGBTUJEBJ2hbBdP5dkXd3h2v+ZGxOmYxjBsAmp3guJIMdb/tenFP9RlxPKMqkO0iSducwPTuJKsKxmpi41P5dRsfiDvu4pmTO9vq/sJXvoKfE3eshPGl++mqzHPUBdJ/JTmGCdfHtYhGJWGNsAhY1ottnxKZ6tIIM8zf+6/GwRuyVBj7MW0Tw0agsuMdEwLpE0kuM42BL4I5lk0pZQkS8lPQh0ko3i7G/U0QvsnAm6LgjKLvShh0VRyzs2XHNGYEMjCAYtY82SC6NKnZtLLE7eRHuBO+f9VY2Ago2GNw4h5bLmbgEpl9BpXwIQjCQNlgvipfqQV3EWPqGHMC6buaBO/6N5uXghAs31XW+1c18wT8DYSr8mXvatXYUfFKVudbmY1LQPhQVKw4/YnwnVS97apd9zGJM6YI9pgUyMAAurOdR6TIuJSBWGdsihA2YBtsWgnqXVgY432EnZx5NnycB8LhMuOMyyfo5s8Gf9cu12JpF6Uq7zEtkIFBlqZPns2GXwAQ/Le3qsHL4ATCMAz/+rAzcWVixOFTyqbPZdC5oyyUGoDFzMbiQmVj0AFnzB9NIZABFvs2EK23FUBcSPjd/3MMuqUZhbHrGRgIBWSXHOb1AAABlklEQVScneQzHoH+FAgjBV48Wh/8ZJXYVAIZPMil2c4TU6CjGXQMEd4uS8AIfs8BvMwH3b5t88Q7Tl+/Pmjq1jJHsIFnvU5zUkQnxiGWYL2GT7iTwPfS7rWfqGrklnQBmlYgg4kqZfd8Xd2YcBwxH0fAcQAsCSKfAPNqEK32Gavj2D1JIqdEXPqacKfqx4L5cELfs8rhUv1ymVexYfyszaC7567ZGGyu1PRHSwhk1yos2nffPTp3f3kKev2pbPBUg40pIExl5qkGoYeYe9gwegygp9fnFzZPbFv9kcc39DR9NRUOoJjrOABsZInQ4fvUkSKaxIQO+H4dBm0gxgY26Hnyezf0tuP5eU/0BLO0W+5oSYG0XJX0gEaNAS2QUaNeB24GBrRAmqFKOsdRY0ALZNSo14GbgQEtkGaoks5x1BjQAhk16nXgZmBAC6QZqqRzHDUGtEBGjXoduBkY0AJphirpHEeNAS2QUaNeB24GBrRAmqFKOsdRY0ALZNSo14GbgQEtkGaoks5x1BjQAhk16nXgZmDg/wEFZcZ9Vpx6kgAAAABJRU5ErkJggg==;" vertex="1" parent="1">
          <mxGeometry x="320" y="250" width="30" height="30" as="geometry" />
        </mxCell>
        <mxCell id="nt5jMm1TpiSUR0SnXHAM-8" value="" style="shape=image;verticalLabelPosition=bottom;verticalAlign=top;imageAspect=0;aspect=fixed;image=data:image/png,iVBORw0KGgoAAAANSUhEUgAAAMgAAADICAYAAACtWK6eAAAAAXNSR0IArs4c6QAAFA1JREFUeF7tnQmQHOV1x/+vZyWwEZoeCYMkZGl6JIEgEHOFw8YuYkRxn46mZyXAhjKmYoMNCSSmbBxRUIHYEMuEmGBsAwJLMyMOO1x2IEZAjDgMCYc5ZO32rIAERUTTo2MBaadf1CvWlhNJ/U1v98z016+rtnar+n3ve//f6//29Mz01wTZhIAQ2CEBEjZCQAjsmIAYRI4OIbATAmIQOTyEgBhEjgEhEI6AnEHCcZNRKSEgBklJo0VmOAJikHDcZFRKCIhBUtJokRmOgBgkHDcZlRICYpCUNFpkhiMgBgnHTUalhIAYJCWNFpnhCIhBwnGTUSkhIAZJSaNFZjgCYpBw3GRUSgiIQVLSaJEZjoAYJBw3GZUSAmKQlDRaZIYjoJ1BqlPHT+AxdD5gzGHmmUSYsRUNPx0OkYzaPgE6EsBGBvoIeBlMD9q1+hLdaGllkHI++yUiukW3JiVFDwEveQbNL/XVX0lKzUF1amOQJXkzbxCcIMGyP14CBHqm6NT9s4sWmzYGKeez1xLR17XoStJFGHS03Vf/VdJl+PVrY5CKZb4M4AAdmpJ4DYwFds29KvE6dDJINW++woQ/0qEpGmi42nbcb2mgQ58zSNXKfZvBl+vQlKRrIMYxxZr7eNJ1aPUS6+7C+FlNNlbo0JSEa3jRdtyDEq7hd+Vrcw3iK6rmza8xYaEuzUmaDgJ+C4N7i32N55NW+47q1cogW9/qpRsBPlWXBiVKB+Equ99dkKiaA4rVyiAVy3wJwIE6NSiBWm6wHfeyBNa93ZK1MUg5n72QiP5Jl8YkWYdnGNN6+9a+mWQNI7VrY5CKlV0ODH8/SLYOE2DQxSWnflOHy4hkem0MUrXMGgPTI6EiSUZL4Ebbcb822iTdMF4bg1Ty2cUg6u0GqGmvwSOa39tfX6wDB20MUi3kTmbmB3RoStI1kOP2FIFm0nX49WtjEF9M2cqVCWzr0JikamDmC0u1xg+SWv//rVsrgwybpGDeRozP62b+rj/gGG+DvGttZ90/dn2tLRSolUEqefNHIJzfgn4JjZwAnWM79bsiT9uhhNoYpFLIzgHTIx3iKNP+nsBm23HH6gJEH4NY5h0AztWlMUnWweBiyWksTbKGkdp1Mkg/AEuHpiReA2Gh3e9emngdOl3IVizzGQCH69CUpGtgxqWlmqvFt6q1OYOULfNiAm5M+sGlQ/1keLOKfetWaqFFBxEjGsqW6a/RVNBJU/K08Pdtp/GV5NW9/Yq1OYP48hZbuT82wD8i4DBdGpQkHcxYWKrpce2h3UX6tgdSeXr2EMPAWQz6RtABRgAz2F8yaCgoNk37mYe/+Ol/4Bqw0WvE/O0h2vzwPGfj6qDopO3X6gyyLfyqZZ7DwKLAhjB+adfcYwPjUhhQscz1AMYFSH+XNoyximvWbNARkbYGKVu5Wwj8paCmEdEVxf76dUFxadxfsXIVgItB2onolGJ//cGguCTu19YgqutksceHlgYaLySxeXHXXLayXyTQrUHzMOg7Jaf+V0FxSdyvpUHKlvkJAv5DoSErbcedpRCXypAWllJ61nbcI3SEpKdBCrkvE7PCt0rpVtupB74M07HxqpoqefPXIBwaFM9eZv/SwP+8FhSXtP1aGkT17kIiml/U5M63uA68SiH3d2AOfvnE9Od2ra7dohl6GsQyBwBMCzhoNlFmaGpx5YY1cR1cOuRdUsidbCjcqcmgSsmpl3TQvK0G7QxSLpjnEePHwY2iX9hO/YTguHRHVPf/2Dh+b/MqALkAEs0m6JB5Tt1fm0ybTTuDVC3zCQY+HdQheXs3iNDv91cK5r1gnBk4grHQlk/SAzF1LKBsZecSqKpSAJN3eKl/3XMqsWmPaeGLoA3y+ODiQEObJ31pdQapFrIPMdOJgQc080N2rXFyYJwEDBOozhg/kz3jt4o4rrEd90rF2K4P08Yg1ULu68x8rQpxj3Feb829XSVWYrYSUP7nAzS3PMzzrKLj/rMO7LQwSFn5c4/hltU+GNzlgHNXr96oQwPbpaGFl1n+WlJuk3Fmb81d1q764pon8QapWLmzAb6zBUBX2o57TQvxErrlXuY79t594q5jjScB2k8RyFueh9N6B9x/V4zvyrDEGuSe6XtM3kRDFxqEv1EnS28Q4Yhif72hPkYiRwiULfNcAvzFMRQ3fo0YC4sJXkgucQbZxhgXAJii2KnhMAJdXNRk1fFWdEcZq/oN3z+Yk/E8gX+QRKN0tUFumTLlo+PHDO5LRPsyeDYZvC8xfaZVY3zojp/a/W7we/lRHk0a5qrmzYOY8BgAs2V5jOfZwMsEWsEev9r0+OX5qxr+ajRdu3WNQfyF3wg4loE8GHn4v0GTIiK3kogOk5dW0dAs581LiPDdaLLx+wT4j66ogfzfxkuG13NfsbbmnWjyjy5LRw2ydHruRI+80wA6FYS9Rydlx6N1euJRXIxazVu1zEUMnNPquBbi7wfoFz1e5t7PDbz7Xy2MizS0IwapWOZnCLiIgbmRqtlOMo/xpzq83Rg3pzD5K5bpr8E7P8zYFsb8p8e4dSz33NIJo7TVIA/NxC7rmuZNBHyxBUBhQzd4jFPFHGHxqY1r8TMotaTbjxo2Sm+tvU/RbZtBFs0Yt+eunLld6asgo8G4deyLAL5qO+4To08lGYIIlAu5+R/eoJYNih31fsZ9ds09a9R5FBO0xSAtfpdHsfQdhfH3aTNfWXxr3dpRJpLhLRCozsgeCsbVbfkHyOiza+7MFsoLHRq7Qfw1qsig50NXqD7QYaIrS/31n6gPkcioCVQs85sAro4673byrbUdd2Lc88RqkLtmTpg6pun59ykHra00Gp3PGYTFGRpafFbfhv8eTSIZGw2BaiF3oOd584honsKdnaOZ9Ce24549mgRBY2MzSHV/jMWg+RgTPhlURIv7NwN4FuAXDaJ/ndvv3tvieAlvE4FqIedfk8zzPO9oIhzcwve4lCtk5utKtcYVygNaDIzNIBXL9E+z/uk21Lblna63GPzK8IdHHgYAroFpxesDjZcWALJMaCiqnR10X9403wcOMgwUmLlAjAKI/GuJ/QHsFrY68nBWccC9L+z4nY2LxSBVa/d9GRn/eR2tvKvhEPhmj4zXxjQzz3fiPe84AEtONQJ35yfO9mjogCbTAa19ARVAjMvHxmKQsmX+g/9BoBqa4agfjjGGviHXEC0Q0zj0w1un/37LcTFVVSYzzi/V3NtU41XjIjfIPdOyhaEM9akWsOVl0zy7Vl+iHC+BqSFQyZs/BuE8RcGxrO4YuUGW5rMXekSqC4jdYDvuZYoAJCyFBKqW+TMGTlORzuwdVaqte1olVjUmcoO0cO/yc7bjyjMFVTuV0jj/nTBmflvlIp6Iryv2R/uOVqQGqc4c9zFu9qh8FrGRiE4o9tf/LaV9F9ktEKgWcvOYOfADYAK/XnQaqrcEK1UQqUEqefMMEALfbiPgzqLjyjPNlVokQT6BsmXWCMNPvdrpNsjuR86r4f2gONX9kRpE/UYavtx2GterFilxQqBiZR8GKHCpWOLNk4u1jZHdbBWpQSoF87tgXBLUTgYfX3Ia/xIUJ/uFwAiBimX6/1D/MohIk5v7zautfz0oTnV/1Aa5D4wzgiZvYvMkHR/4GKRb9ocnUCnkesG8OChD1O9kRWqQqmU+xsAxQSJsx4103qD5ZH/yCSzJm8cYWxeL2OkW9R2kkR6oYpCg9sn+sATEIGHJybhUEBCDpKLNIjIsATFIWHIyLhUExCCpaLOIDEtADBKWnIxLBQExSCraLCLDEhCDhCUn41JBQAySijaLyLAExCBhycm4VBAQg6SizSIyLAExSFhyMi4VBMQgqWiziAxLQAwSlpyMSwUBMUgq2iwiwxJItUGqhdw0j73Z/jMJiXkSQJNh8CRimsTMgyAaZGDQYN7IRIMABgFaDea3Mwa/Rc0xb8tKjGEPvWSMS5VBGHwBGIcQ0YEA/J9WlijdbkcZ8Pz1fAF/iRh6ith4dFMPnjp75dp1yTgEurtK/xkvxJnZ7HlTmqApRDSZwJPBmALCZIUnD3+w9R8b3gPjPdDWvwkY9IA3AV5lMFZ5bLzpjaFVu2WMVae/8e76ESqpMkg7DwUCljUZjxvwlm/u6VkuhgmmX506foKXyRzBxEdkDD6cmY4AMCF4ZOQR/q2nqwDfOGgS4fSgGbS4ozBIZFz7CVjP4F8x43GAl0W9Cl9cdcedd/E+u++R2dRzHMBzQPCfQ9+WpzfFoUsMEiFVf6ExJiwD8Cjt2ri/+Co2RZi+a1MtAIzZVnaOAWPOln8YxwE4qGuLbbEwMUiLwNTD2V9sbBnBeLDJ/EBvza2pj+3+SP8Zgl7TOM4gnsPAsd1fcbgKxSDhuIUZ9TLATwLGcs54y0srG+or1oeZLeIx5cL4P8mw8RnG8Esm/7cZ8RRdmU4M0rm2rAGwnIiWNz1+OtvjLj9pJfx3ZrpiqxZyRzNvNQPA/u+PdEVhbS5CDNJm4DudjvACMX7DwAoGv9ED4431XF8R5dqw286/AOiZPX3iLFBzHyKeBRj7EHjWh2cJo5vQdKoWMUinyLcwL8F/piK94YFX+B9mEuAy2DUA1xv+YbcHnrsRG10/7W7YzRyCYRog0wBMDzAJZPovi4hoCkAjRii0UEYqQ8UgqWy7iFYlIAZRJSVxqSQgBkll20W0KgExiCopiUslATFIKtsuolUJiEFUSUlcKgmIQVLZdhGtSkAMokpK4lJJQAySyraLaFUCYhBVUhKXSgJikFS2XUSrEhCDqJKSuFQSEIOksu0iWpWAGESVlMSlkoAYJJVtF9GqBMQgqqQkLpUExCCpbLuIViUgBlElJXGpJCAGSWXbRbQqATGIKimJSyUBMUgq2y6iVQmIQVRJSVwqCYhBUtl2Ea1KQAyiSkriUklADJLKtotoVQJiEFVSEpdKAmKQVLZdRKsSEIOokpK4VBIQg6Sy7SJalYAYRJWUxKWSgBgklW0X0aoEutogFStXAbioKkbihEDUBBg4qOS4L0aVl6JK5OepWLnvAHxZlDkllxBohQDxmMnF2pp3Whmzs9hIDVK2zIsJuDGq4iSPEGiVwGuOm1kAeK2O21F8tAbJm6cT4adRFSd5hECLBNbYjrtni2N2Gh6pQZZMNw82DLwQZYGSSwioEmDGb0o19wDVeJW4SA1yx967T9x1bOZdlYklRghETYAIvyz2u8dGmTdSg2y9UDc3DD+4VTYh0G4CxGW7v9Eb5bQxGCT7KkD7RVmk5BICKgSI8L1iv3uJSqxqTAwGMe8G8DnVAiROCERFgEEXl5z6TVHl8/NEbpAlefMLBuG2KIuUXEJAhcDmjPHxs1eufUslVjUmeoN8fI8pRs/Q26oFSJwQiIIAgZ4pOvUjo8i1bY7IDbL1Qj37FEBHRV2s5BMCOyFwpe2410RNKCaDmN8EcHXUxUo+IbAjAmzQgaW++itRE4rFIEut3Kc98BNRFyv5hMD2CMT18iqWi/QRARXLdADkpaVCIHYCjAV2zb0qjnliOYP4hZYL5m3E+EIcRUtOIbAtAY+9I3tr656Jg0psBqnmJ5zA5D0cR9GSUwiMECDgZ0XHPSMuIrEZZPgsYpmLCDgnruIlrxBosnfivNq6n8dFIlaDLClkDzOYnt7yjlYmLgGSN80EqGo7dTtOArEaxC+8apk3MPAXcYqQ3Ckl4OGz9oD7WJzqYzfIPZY5fQj8NECT4hQiudNFgIA7i457btyqYzeIL6BSyF0B5r+NW4zkTw8BzzM+1Tuw9qm4FbfFIPdPmfLRwV0G/WuRA+MWJPlTQeCHtuNe0A6lbTGIL2RpITffY76rHaJkDq0JrGSDzozjayXbo9Y2gwxfsBfMq5jxLa3bJ+JiJWAYxqfm9sX/0mpERFsN8uH1yBIwl2KlKMm1JMAenVQaqLf1w+e2G8TvXNkyX9jyCejBWnZRRMVCgJhLxVqjEkvynSTtiEE+NMkGksUd2t3vhM7Hl9tO4/pOFN8xg9wzLVsYylBfJ0TLnMkh0K7PO3ZEpGMGGb5onz7hKDa82N/LTs7hIJX+IQH+ue00TuwklY4aZNgkU8dP4DGGvxr31E6CkLm7jsAi23E/3+mqOm6QEQBVy6wyMLfTQGT+biBA19tO/fKuqKQbihipoWKZ/n3s/v3ssqWUgEG4dG6/u7Bb5HfNGeR3JsmbXwXhe90CSOpoG4HVBuHLc/vde9s2o8JEXWcQv+ZKPtcL4r8G8AkFDRKSfAIPZogX/Fl/49fdJqUrDeJDemgmdlnfNC8C4P/I4g/dduREU8+jTLi51GVnjW2lda1BRopcNGPcnrtyz1eYh40yIZq+SJZOEmDgSSK62e6vL+lkHSpzd71BRkRUZ4yf6bFxkQH4ZulREScxXUfgWWLcXKy5t3ddZTsoKDEGGam/PDN7CIboFADHE+GTSQGd4jrXMOFBBj3S219fnDQOiTPItoDL0yfuRzR0Khl0PDM+mzT4Gte7BuClTMbD4436IyetxAdJ1Zpog2wL/YFp2dxGg04D4VQGZhGwF7b+yBYvgU0AVjOwmsDPekxLe2vusninbF92bQyyI2SLrd32Gouxew3Bm8SgvQzwXh7TuPYh1mcmA1hL4NVN0GrizOpxPPTOKasadX0U/n8l2htE5+aJtvgJiEHiZywzJJiAGCTBzZPS4ycgBomfscyQYAJikAQ3T0qPn4AYJH7GMkOCCYhBEtw8KT1+AmKQ+BnLDAkmIAZJcPOk9PgJiEHiZywzJJiAGCTBzZPS4ycgBomfscyQYAJikAQ3T0qPn4AYJH7GMkOCCYhBEtw8KT1+AmKQ+BnLDAkmIAZJcPOk9PgJiEHiZywzJJjA/wIHYF0yK7XQ0QAAAABJRU5ErkJggg==" vertex="1" parent="1">
          <mxGeometry x="220" y="390" width="50" height="50" as="geometry" />
        </mxCell>
        <mxCell id="nt5jMm1TpiSUR0SnXHAM-11" value="" style="endArrow=classic;html=1;rounded=0;entryX=0;entryY=1;entryDx=0;entryDy=0;" edge="1" parent="1">
          <mxGeometry width="50" height="50" relative="1" as="geometry">
            <mxPoint x="220" y="418" as="sourcePoint" />
            <mxPoint x="170" y="270" as="targetPoint" />
            <Array as="points">
              <mxPoint x="170" y="418" />
            </Array>
          </mxGeometry>
        </mxCell>
        <mxCell id="nt5jMm1TpiSUR0SnXHAM-12" value="" style="endArrow=classic;html=1;rounded=0;entryX=0;entryY=1;entryDx=0;entryDy=0;" edge="1" parent="1">
          <mxGeometry width="50" height="50" relative="1" as="geometry">
            <mxPoint x="270" y="418" as="sourcePoint" />
            <mxPoint x="320" y="270" as="targetPoint" />
            <Array as="points">
              <mxPoint x="320" y="418" />
            </Array>
          </mxGeometry>
        </mxCell>
        <mxCell id="nt5jMm1TpiSUR0SnXHAM-15" value="" style="endArrow=classic;html=1;rounded=0;strokeColor=#FF3333;" edge="1" parent="1">
          <mxGeometry width="50" height="50" relative="1" as="geometry">
            <mxPoint x="180" y="270" as="sourcePoint" />
            <mxPoint x="220" y="410" as="targetPoint" />
            <Array as="points">
              <mxPoint x="180" y="340" />
              <mxPoint x="180" y="410" />
            </Array>
          </mxGeometry>
        </mxCell>
        <mxCell id="nt5jMm1TpiSUR0SnXHAM-16" value="" style="endArrow=classic;html=1;rounded=0;strokeColor=light-dark(#c60606, #ededed);" edge="1" parent="1">
          <mxGeometry width="50" height="50" relative="1" as="geometry">
            <mxPoint x="310" y="270" as="sourcePoint" />
            <mxPoint x="270" y="410" as="targetPoint" />
            <Array as="points">
              <mxPoint x="310" y="340" />
              <mxPoint x="310" y="410" />
            </Array>
          </mxGeometry>
        </mxCell>
        <mxCell id="nt5jMm1TpiSUR0SnXHAM-17" value="部署官网服务器" style="text;html=1;align=center;verticalAlign=middle;whiteSpace=wrap;rounded=0;" vertex="1" parent="1">
          <mxGeometry x="145" y="190" width="60" height="30" as="geometry" />
        </mxCell>
        <mxCell id="nt5jMm1TpiSUR0SnXHAM-18" value="行政服务号" style="text;html=1;align=center;verticalAlign=middle;whiteSpace=wrap;rounded=0;" vertex="1" parent="1">
          <mxGeometry x="275" y="190" width="65" height="30" as="geometry" />
        </mxCell>
      </root>
    </mxGraphModel>
  </diagram>
</mxfile>
